<?xml version="1.0" standalone="no"?>
<!DOCTYPE svg PUBLIC "-//W3C//DTD SVG 20010904//EN"
 "http://www.w3.org/TR/2001/REC-SVG-20010904/DTD/svg10.dtd">
<svg version="1.0" xmlns="http://www.w3.org/2000/svg"
 width="1000.000000pt" height="707.000000pt" viewBox="0 0 1000.000000 707.000000"
 preserveAspectRatio="xMidYMid meet">

<g transform="translate(0.000000,707.000000) scale(0.100000,-0.100000)"
fill="#000000" stroke="none">
<path d="M184 6875 c-4 -9 -4 -19 0 -22 3 -4 6 1 6 10 0 19 15 23 23 7 3 -6 4
-5 3 2 -4 19 -25 21 -32 3z"/>
<path d="M287 6882 c6 -4 14 -34 16 -67 l3 -60 2 62 c2 49 5 62 20 66 9 3 1 5
-18 6 -19 0 -30 -3 -23 -7z"/>
<path d="M360 6843 c0 -52 11 -54 12 -2 1 19 6 37 12 41 7 5 4 8 -6 8 -15 0
-18 -9 -18 -47z"/>
<path d="M520 6878 c0 -7 5 -20 11 -28 8 -12 9 -10 4 7 -4 15 -1 23 12 26 14
4 13 5 -4 6 -13 0 -23 -5 -23 -11z"/>
<path d="M630 6840 c0 -29 3 -51 6 -47 8 7 7 87 0 95 -3 3 -6 -19 -6 -48z"/>
<path d="M656 6877 c3 -10 9 -15 12 -12 3 3 0 11 -7 18 -10 9 -11 8 -5 -6z"/>
<path d="M700 6881 c0 -6 4 -11 9 -11 5 0 12 -8 15 -17 3 -11 4 -8 3 6 -2 24
-27 44 -27 22z"/>
<path d="M878 6883 c7 -3 13 -28 14 -66 l2 -62 3 60 c2 33 10 63 16 67 7 4 -1
7 -18 7 -16 0 -24 -3 -17 -6z"/>
<path d="M253 6825 c0 -33 2 -45 4 -27 2 18 2 45 0 60 -2 15 -4 0 -4 -33z"/>
<path d="M753 6845 c0 -22 2 -30 4 -17 2 12 2 30 0 40 -3 9 -5 -1 -4 -23z"/>
<path d="M780 6865 c0 -8 4 -15 9 -15 5 0 14 -20 20 -45 16 -65 31 -56 29 18
l-1 62 -6 -50 -6 -50 -14 48 c-13 45 -31 64 -31 32z"/>
<path d="M692 6830 c0 -14 2 -19 5 -12 2 6 2 18 0 25 -3 6 -5 1 -5 -13z"/>
<path d="M783 6805 c0 -22 2 -30 4 -17 2 12 2 30 0 40 -3 9 -5 -1 -4 -23z"/>
<path d="M181 6792 c-1 -26 27 -41 40 -21 12 19 11 39 -1 39 -5 0 -7 -6 -4
-14 3 -8 1 -17 -5 -21 -6 -3 -15 4 -20 17 l-10 23 0 -23z"/>
<path d="M721 6794 c0 -11 3 -14 6 -6 3 7 2 16 -1 19 -3 4 -6 -2 -5 -13z"/>
<path d="M470 6775 c0 -8 4 -15 10 -15 5 0 7 7 4 15 -4 8 -8 15 -10 15 -2 0
-4 -7 -4 -15z"/>
<path d="M530 6770 c0 -6 7 -10 15 -10 8 0 15 2 15 4 0 2 -7 6 -15 10 -8 3
-15 1 -15 -4z"/>
<path d="M378 6763 c7 -3 16 -2 19 1 4 3 -2 6 -13 5 -11 0 -14 -3 -6 -6z"/>
<path d="M592 6708 c-7 -7 -11 -28 -11 -47 l1 -36 7 35 c4 20 11 41 15 48 9
15 3 15 -12 0z"/>
<path d="M939 6688 c4 -28 6 -29 9 -9 2 13 0 27 -5 32 -6 6 -7 -3 -4 -23z"/>
<path d="M180 6699 c0 -5 4 -7 10 -4 5 3 12 -4 14 -17 3 -13 7 -32 9 -43 3
-14 5 -12 6 8 0 16 -4 37 -9 48 -11 20 -30 26 -30 8z"/>
<path d="M241 6683 c1 -22 2 -23 6 -8 3 11 10 23 17 27 7 5 5 8 -6 8 -13 0
-18 -7 -17 -27z"/>
<path d="M492 6648 c2 -40 7 -62 16 -64 7 -1 8 0 2 3 -15 7 -13 110 3 116 7 3
5 6 -6 6 -16 1 -18 -7 -15 -61z"/>
<path d="M391 6684 c0 -11 3 -14 6 -6 3 7 2 16 -1 19 -3 4 -6 -2 -5 -13z"/>
<path d="M422 6648 c-2 -58 10 -80 31 -58 9 9 8 11 -3 8 -11 -2 -16 10 -21 52
l-6 55 -1 -57z"/>
<path d="M463 6660 c0 -25 2 -35 4 -22 2 12 2 32 0 45 -2 12 -4 2 -4 -23z"/>
<path d="M700 6680 c0 -12 7 -20 16 -20 12 0 15 -7 12 -25 -3 -13 -1 -22 3
-19 15 9 10 54 -6 54 -18 0 -20 16 -2 23 7 3 5 6 -5 6 -12 1 -18 -6 -18 -19z"/>
<path d="M761 6674 c0 -11 3 -14 6 -6 3 7 2 16 -1 19 -3 4 -6 -2 -5 -13z"/>
<path d="M791 6658 c-1 -39 -16 -51 -24 -20 -4 14 -5 14 -6 1 0 -9 6 -22 14
-29 12 -10 15 -7 20 13 4 14 5 36 2 48 -3 16 -5 12 -6 -13z"/>
<path d="M7796 6681 c-4 -5 -11 -62 -16 -128 -6 -65 -14 -158 -20 -208 -14
-128 -13 -175 4 -175 15 0 25 58 27 159 2 102 9 125 41 129 31 4 32 2 49 -168
11 -109 20 -142 36 -127 6 6 -38 419 -53 500 -5 22 -11 27 -34 27 -16 0 -31
-4 -34 -9z m51 -125 c6 -66 6 -66 -20 -66 -25 0 -26 1 -21 53 3 28 7 63 10 76
9 42 26 8 31 -63z"/>
<path d="M7990 6662 c0 -28 4 -32 38 -37 20 -4 43 -8 50 -10 9 -3 12 -60 12
-240 l0 -236 23 3 22 3 0 240 0 240 48 5 c26 3 47 8 47 13 0 4 0 11 0 16 0 12
-35 19 -147 27 l-93 6 0 -30z"/>
<path d="M9562 6665 c-28 -35 -45 -116 -40 -181 5 -52 8 -58 65 -112 72 -69
91 -108 73 -152 -25 -60 -78 -60 -98 0 -13 36 -32 40 -32 6 0 -37 46 -86 81
-86 38 0 78 39 80 77 5 89 -4 115 -62 178 -21 22 -43 54 -49 69 -15 39 -12
129 4 151 14 19 15 19 24 -5 6 -14 13 -33 16 -42 7 -22 36 -13 36 11 0 36 -22
91 -40 101 -28 15 -37 13 -58 -15z"/>
<path d="M183 6635 c0 -27 2 -38 4 -22 2 15 2 37 0 50 -2 12 -4 0 -4 -28z"/>
<path d="M864 6668 c-4 -6 -3 -8 4 -4 6 3 12 -3 15 -16 4 -20 4 -19 6 5 1 28
-12 36 -25 15z"/>
<path d="M7574 6627 c-30 -94 -28 -93 -86 -29 -61 68 -66 72 -95 72 l-22 0 5
-197 c6 -258 11 -303 31 -303 15 0 16 23 10 218 l-6 217 67 -73 c37 -40 74
-72 83 -72 13 0 20 17 29 65 7 36 16 63 20 60 4 -2 10 -71 14 -152 11 -247 16
-283 37 -283 18 0 19 9 18 133 -1 72 -4 190 -8 262 l-6 129 -37 2 c-36 3 -37
2 -54 -49z"/>
<path d="M8316 6672 c-8 -7 -7 -298 0 -410 6 -80 9 -92 25 -92 17 0 19 13 21
158 l3 157 60 -3 c33 -1 63 -6 67 -10 4 -4 10 -74 15 -157 8 -148 8 -150 32
-153 l24 -4 -7 84 c-3 45 -8 155 -12 243 -7 188 -8 197 -37 193 -19 -3 -22
-10 -25 -63 -3 -68 -17 -85 -68 -85 -40 0 -45 7 -51 80 -4 45 -10 59 -24 63
-10 3 -20 2 -23 -1z"/>
<path d="M8630 6648 c0 -18 5 -133 12 -255 l12 -223 73 0 c40 0 73 4 73 8 0 5
-26 13 -57 18 l-58 9 -3 138 c-2 106 0 137 10 137 7 0 19 4 27 9 19 12 4 51
-20 51 -10 0 -19 5 -20 10 0 6 -1 27 -1 48 l-1 37 44 0 c38 0 44 3 47 23 3 21
0 22 -67 22 l-71 0 0 -32z"/>
<path d="M9183 6673 c-25 -9 -11 -523 14 -523 10 0 13 49 13 259 0 143 -3 262
-7 264 -5 2 -14 2 -20 0z"/>
<path d="M9280 6658 c0 -13 5 -128 12 -255 l12 -233 73 0 c40 0 73 4 73 8 0 5
-26 13 -57 18 l-58 9 -3 136 -3 137 26 6 c34 9 32 49 -2 54 -20 3 -23 9 -23
53 l0 49 45 -7 c44 -6 45 -5 45 21 0 26 -1 26 -70 26 -66 0 -70 -1 -70 -22z"/>
<path d="M352 6645 c0 -16 2 -22 5 -12 2 9 2 23 0 30 -3 6 -5 -1 -5 -18z"/>
<path d="M8873 6588 c9 -125 58 -432 71 -440 17 -12 46 -9 50 5 2 6 12 48 21
92 10 44 30 130 46 192 32 127 41 214 22 220 -21 7 -28 -21 -93 -351 -7 -32
-15 -54 -20 -50 -4 5 -22 97 -39 204 -18 106 -35 198 -37 202 -3 4 -10 8 -16
8 -8 0 -9 -26 -5 -82z"/>
<path d="M381 6644 c0 -11 3 -14 6 -6 3 7 2 16 -1 19 -3 4 -6 -2 -5 -13z"/>
<path d="M244 6621 c0 -21 7 -36 16 -38 10 -3 11 -2 3 4 -6 4 -13 22 -16 38
-4 27 -5 27 -3 -4z"/>
<path d="M929 6614 c-9 -19 -13 -34 -9 -34 9 0 35 59 29 64 -2 2 -11 -12 -20
-30z"/>
<path d="M1122 6605 c-62 -24 -115 -45 -118 -48 -5 -4 131 -132 188 -177 l27
-21 143 37 c79 20 149 39 156 43 12 7 -10 24 -209 164 -37 26 -68 47 -70 46
-2 0 -55 -20 -117 -44z"/>
<path d="M590 6614 c0 -13 18 -39 24 -34 2 3 -2 14 -10 24 -8 11 -14 16 -14
10z"/>
<path d="M360 6594 c0 -8 5 -12 10 -9 6 3 10 10 10 16 0 5 -4 9 -10 9 -5 0
-10 -7 -10 -16z"/>
<path d="M5671 6531 c-7 -5 -11 -15 -9 -22 3 -8 -5 -18 -16 -24 -30 -15 -43
-59 -27 -89 10 -18 11 -32 3 -54 -9 -27 -7 -34 23 -66 29 -32 36 -35 58 -27
14 5 27 8 29 5 3 -2 1 -27 -3 -56 -7 -55 -5 -68 12 -68 5 0 9 26 9 58 0 56 1
59 32 73 41 18 64 78 49 129 -8 27 -7 38 5 51 23 26 14 52 -26 71 -44 21 -120
32 -139 19z"/>
<path d="M743 6473 c-12 -10 -23 -33 -27 -50 -4 -27 0 -38 24 -63 20 -20 30
-41 30 -60 0 -17 5 -30 11 -30 7 0 9 12 5 34 -6 29 -3 37 21 56 26 20 27 22
10 35 -16 11 -16 16 -5 34 27 43 -29 79 -69 44z"/>
<path d="M1046 6437 c3 -10 9 -15 12 -12 3 3 0 11 -7 18 -10 9 -11 8 -5 -6z"/>
<path d="M5179 6427 c-54 -35 -101 -152 -69 -172 6 -3 10 -24 10 -45 0 -35 3
-40 28 -46 15 -4 38 -15 51 -26 13 -10 29 -18 36 -18 9 0 12 -24 11 -92 -1
-81 1 -93 17 -96 15 -3 17 6 17 80 1 99 9 114 67 114 50 -1 76 20 105 82 24
54 18 85 -22 108 -16 10 -30 27 -32 38 -2 17 -11 22 -50 24 -36 2 -48 8 -53
22 -17 53 -62 63 -116 27z"/>
<path d="M1050 6400 c0 -5 5 -10 11 -10 5 0 7 5 4 10 -3 6 -8 10 -11 10 -2 0
-4 -4 -4 -10z"/>
<path d="M1437 6373 c-4 -3 -7 -19 -7 -35 0 -20 5 -28 18 -27 10 0 12 3 5 6
-7 2 -13 15 -13 28 0 13 6 26 13 28 6 3 7 6 1 6 -6 1 -14 -2 -17 -6z"/>
<path d="M1121 6343 c7 -10 15 -20 16 -22 2 -2 3 5 3 17 0 14 -6 22 -16 22
-14 0 -15 -3 -3 -17z"/>
<path d="M1364 6349 c-4 -8 -3 -9 4 -5 8 5 12 -1 12 -18 0 -13 -6 -27 -12 -29
-8 -3 -6 -6 5 -6 12 -1 17 7 17 28 0 32 -14 48 -26 30z"/>
<path d="M1589 6344 c-21 -25 -22 -63 -2 -93 9 -14 16 -36 14 -48 -1 -13 3
-23 9 -23 6 0 10 6 9 13 -3 27 2 37 20 37 10 0 21 7 25 15 7 20 -4 75 -15 75
-5 0 -9 9 -9 20 0 25 -32 27 -51 4z"/>
<path d="M1300 6329 c0 -5 5 -7 10 -4 6 3 10 8 10 11 0 2 -4 4 -10 4 -5 0 -10
-5 -10 -11z"/>
<path d="M1444 6230 c-1 -16 3 -27 7 -24 11 6 12 54 2 54 -5 0 -8 -13 -9 -30z"/>
<path d="M1150 6227 c0 -13 9 -32 20 -42 20 -18 20 -17 20 13 0 21 -7 35 -20
42 -17 9 -20 8 -20 -13z"/>
<path d="M2320 6218 c0 -7 8 -22 17 -33 14 -18 15 -18 9 -2 -3 10 -6 25 -6 33
0 8 -4 14 -10 14 -5 0 -10 -6 -10 -12z"/>
<path d="M2450 6220 c0 -6 4 -9 9 -6 5 4 12 1 14 -4 3 -6 4 -5 3 2 -3 15 -26
23 -26 8z"/>
<path d="M1305 6210 c-3 -5 -1 -10 4 -10 6 0 11 5 11 10 0 6 -2 10 -4 10 -3 0
-8 -4 -11 -10z"/>
<path d="M2246 6198 c-3 -13 -5 -36 -5 -53 1 -21 4 -15 10 20 8 52 6 72 -5 33z"/>
<path d="M2051 6179 c-1 -38 21 -70 34 -49 4 6 1 9 -7 8 -8 -2 -15 12 -19 37
l-6 40 -2 -36z"/>
<path d="M2142 6185 c0 -16 2 -22 5 -12 2 9 2 23 0 30 -3 6 -5 -1 -5 -18z"/>
<path d="M2500 6185 c0 -8 4 -15 8 -15 5 0 9 7 9 15 0 8 -4 15 -9 15 -4 0 -8
-7 -8 -15z"/>
<path d="M1306 6181 c-4 -7 -5 -15 -2 -18 9 -9 19 4 14 18 -4 11 -6 11 -12 0z"/>
<path d="M2111 6174 c0 -11 3 -14 6 -6 3 7 2 16 -1 19 -3 4 -6 -2 -5 -13z"/>
<path d="M690 6157 c0 -8 -6 -17 -12 -19 -8 -3 -13 -24 -13 -54 0 -55 22 -91
51 -80 14 5 16 1 12 -29 -2 -19 0 -35 4 -35 4 0 8 16 8 35 0 24 5 35 15 35 19
0 37 35 34 68 -2 15 0 33 5 40 13 21 -16 43 -63 49 -33 5 -41 3 -41 -10z"/>
<path d="M2350 6146 c0 -8 5 -18 10 -21 6 -3 10 1 10 9 0 8 -4 18 -10 21 -5 3
-10 -1 -10 -9z"/>
<path d="M2465 6139 c-4 -6 -5 -12 -2 -15 2 -3 7 2 10 11 7 17 1 20 -8 4z"/>
<path d="M2125 6130 c3 -5 8 -10 11 -10 2 0 4 5 4 10 0 6 -5 10 -11 10 -5 0
-7 -4 -4 -10z"/>
<path d="M2405 6130 c3 -5 8 -10 11 -10 2 0 4 5 4 10 0 6 -5 10 -11 10 -5 0
-7 -4 -4 -10z"/>
<path d="M1445 6110 c-3 -5 -14 -6 -25 -3 -14 4 -23 -2 -31 -20 -11 -24 -11
-25 -30 -6 -11 11 -24 17 -30 14 -5 -4 -16 -1 -24 5 -12 10 -16 9 -21 -4 -3
-9 -10 -13 -16 -10 -13 8 -60 -45 -56 -65 5 -27 53 -24 156 10 109 36 177 67
167 77 -9 9 -85 11 -90 2z"/>
<path d="M2041 6043 c1 -62 6 -56 11 15 2 23 0 42 -4 42 -5 0 -7 -26 -7 -57z"/>
<path d="M2317 6047 c6 -75 11 -81 12 -15 1 31 -3 59 -7 62 -5 3 -7 -18 -5
-47z"/>
<path d="M2092 6070 c0 -14 2 -19 5 -12 2 6 2 18 0 25 -3 6 -5 1 -5 -13z"/>
<path d="M2190 6073 c0 -10 4 -14 8 -8 4 6 11 13 16 18 5 4 2 7 -7 7 -10 0
-17 -8 -17 -17z"/>
<path d="M2370 6070 c0 -11 4 -20 9 -20 5 0 7 9 4 20 -3 11 -7 20 -9 20 -2 0
-4 -9 -4 -20z"/>
<path d="M179 5952 c0 -64 -2 -125 -4 -134 -2 -10 -2 -18 0 -18 16 0 235 124
228 130 -4 4 -56 37 -115 74 l-108 66 -1 -118z"/>
<path d="M2431 6044 c0 -11 3 -14 6 -6 3 7 2 16 -1 19 -3 4 -6 -2 -5 -13z"/>
<path d="M2480 6046 c0 -8 4 -17 9 -20 5 -4 7 3 4 14 -6 23 -13 26 -13 6z"/>
<path d="M2581 6039 c-1 -14 6 -34 15 -45 8 -10 12 -13 8 -5 -4 8 -11 28 -15
45 -6 29 -7 29 -8 5z"/>
<path d="M1922 6030 c0 -14 2 -19 5 -12 2 6 2 18 0 25 -3 6 -5 1 -5 -13z"/>
<path d="M2191 6028 c-13 -21 -13 -22 3 -9 15 13 18 12 23 -7 3 -12 9 -22 15
-22 5 0 3 10 -4 23 -7 12 -11 25 -10 30 5 16 -14 6 -27 -15z"/>
<path d="M2092 6015 c0 -16 2 -22 5 -12 2 9 2 23 0 30 -3 6 -5 -1 -5 -18z"/>
<path d="M3346 6021 c-59 -20 -96 -62 -77 -85 10 -12 8 -17 -8 -26 -12 -6 -21
-17 -21 -25 0 -11 30 -14 155 -14 101 -1 155 2 155 9 0 5 -5 10 -10 10 -6 0
-8 16 -4 41 6 35 4 41 -14 46 -11 2 -23 14 -25 25 -4 16 -11 19 -28 15 -12 -3
-28 0 -36 9 -17 17 -24 16 -87 -5z"/>
<path d="M4163 6011 c-18 -12 -33 -27 -33 -35 0 -18 -32 -76 -43 -76 -4 0 -19
-25 -32 -55 -22 -47 -24 -58 -13 -78 7 -12 13 -38 13 -57 0 -34 1 -35 42 -38
31 -2 46 2 60 18 17 17 27 19 68 14 l47 -7 -4 -69 c-6 -71 -1 -82 27 -72 15 6
16 17 10 88 -4 48 -2 92 4 108 17 45 75 117 99 123 12 3 33 7 47 10 26 6 36
40 13 48 -10 3 -10 7 0 20 11 13 7 19 -34 43 -44 26 -66 30 -134 24 -8 0 -35
2 -60 5 -35 5 -52 2 -77 -14z m197 -152 c0 -6 -14 -25 -32 -42 -27 -27 -33
-29 -36 -15 -2 10 9 29 24 43 29 27 44 32 44 14z m-100 -65 c0 -18 3 -39 6
-48 4 -11 1 -16 -10 -16 -9 0 -16 7 -16 15 0 8 -4 15 -9 15 -12 0 -61 51 -57
59 3 4 23 6 45 6 39 0 41 -1 41 -31z"/>
<path d="M1955 6000 c-4 -6 -11 -7 -17 -4 -7 4 -8 2 -4 -5 6 -9 11 -9 22 0 14
11 18 19 10 19 -3 0 -8 -5 -11 -10z"/>
<path d="M8268 5959 c19 -17 32 -33 29 -35 -3 -3 -33 2 -67 11 -81 21 -92 16
-39 -20 65 -44 69 -47 69 -38 0 5 -16 17 -36 28 -46 25 -32 29 37 11 31 -8 58
-10 63 -5 10 9 -60 78 -79 78 -5 0 5 -13 23 -30z"/>
<path d="M2490 5926 c0 -8 -11 -17 -25 -20 -15 -4 -30 -17 -35 -31 -5 -14 -14
-25 -19 -25 -6 0 -8 -7 -5 -15 3 -8 -1 -22 -10 -30 -9 -9 -16 -26 -16 -37 0
-14 -5 -18 -16 -14 -28 11 -42 -11 -39 -61 2 -25 9 -49 15 -53 7 -4 4 -14 -10
-30 -20 -24 -27 -60 -11 -60 5 0 7 -9 4 -19 -3 -13 -16 -21 -37 -24 -28 -3
-27 -4 9 -6 22 -1 46 -5 53 -10 26 -16 -13 -30 -118 -43 l-105 -13 -3 -35 c-2
-28 3 -41 23 -60 29 -27 35 -87 10 -96 -11 -4 -15 -21 -15 -59 0 -38 4 -55 15
-59 8 -3 15 -15 15 -26 0 -11 5 -20 10 -20 6 0 10 11 10 24 0 13 5 26 11 28 6
2 12 29 12 61 2 48 -1 57 -15 57 -19 0 -15 19 13 58 22 30 108 42 128 19 20
-24 5 -36 -38 -30 -24 3 -41 1 -46 -6 -4 -7 -4 -44 0 -83 l7 -71 59 6 c57 5
59 4 59 -19 0 -13 5 -24 10 -24 6 0 10 13 10 28 0 28 1 29 85 41 l85 13 0 65
c0 60 1 64 21 61 21 -3 22 -8 20 -95 -1 -58 2 -93 8 -93 6 0 11 -40 13 -97 l3
-98 40 0 c22 0 39 5 38 10 -1 6 -4 75 -7 154 -5 117 -3 141 7 132 8 -6 29 -8
51 -4 l38 6 -4 53 c-4 46 -2 54 13 54 9 0 24 3 33 6 14 5 16 -6 16 -89 0 -138
19 -134 22 5 3 108 4 112 26 118 13 3 22 9 20 14 -2 5 7 12 19 17 20 7 22 13
17 66 -3 32 -5 73 -5 91 -1 27 -5 32 -26 32 -20 0 -23 4 -18 21 5 15 2 22 -14
26 -12 3 -21 11 -21 19 0 7 -10 19 -22 25 -21 11 -21 12 -4 25 10 7 18 26 18
41 0 15 5 31 10 34 6 4 5 15 -2 30 -17 32 -30 39 -57 32 -13 -3 -23 -1 -23 5
0 6 -18 13 -40 17 -36 6 -40 10 -40 35 0 36 -12 40 -131 40 -78 0 -99 -3 -99
-14z m-110 -592 c0 -9 -5 -14 -12 -12 -18 6 -21 28 -4 28 9 0 16 -7 16 -16z
m40 6 c0 -5 -4 -10 -10 -10 -5 0 -10 5 -10 10 0 6 5 10 10 10 6 0 10 -4 10
-10z m-210 -19 c0 -12 -20 -25 -27 -18 -7 7 6 27 18 27 5 0 9 -4 9 -9z m257 3
c-3 -3 -12 -4 -19 -1 -8 3 -5 6 6 6 11 1 17 -2 13 -5z m201 -15 c-2 -6 -8 -10
-13 -10 -5 0 -11 4 -13 10 -2 6 4 11 13 11 9 0 15 -5 13 -11z"/>
<path d="M1610 5890 c-11 -7 -7 -10 18 -10 20 0 31 4 27 10 -8 13 -26 13 -45
0z"/>
<path d="M1209 5821 c-31 -50 -32 -50 -49 -29 -19 24 -50 19 -50 -9 0 -10 -11
-23 -25 -29 -21 -10 -26 -9 -40 12 -21 32 -68 32 -100 -1 -19 -18 -25 -35 -25
-68 0 -31 -5 -47 -15 -51 -9 -3 -15 -18 -15 -39 0 -27 8 -41 42 -70 23 -20 52
-37 64 -37 19 0 23 -8 33 -64 6 -36 8 -83 5 -105 -6 -39 -5 -41 20 -41 25 0
26 2 26 64 0 54 4 70 23 92 l24 27 30 -23 c28 -20 33 -21 59 -8 34 16 43 52
20 77 -22 24 -11 31 46 31 l48 0 0 35 c0 30 -3 35 -24 35 -21 0 -55 25 -45 34
2 2 52 -5 112 -17 71 -13 107 -24 107 -33 0 -17 -17 -27 -25 -14 -3 5 -19 10
-34 10 -25 0 -28 -3 -23 -25 3 -19 0 -25 -13 -25 -14 0 -16 6 -11 30 4 22 2
30 -8 30 -20 0 -27 -59 -7 -64 9 -3 35 -10 59 -16 l42 -11 0 -49 c0 -30 4 -50
11 -50 7 0 9 11 6 29 -6 26 7 51 25 51 4 0 8 -11 8 -24 0 -15 7 -26 19 -29 25
-6 31 0 31 30 0 20 4 23 28 17 38 -9 62 -40 62 -80 0 -40 3 -41 33 -12 19 20
22 34 23 106 2 83 31 262 43 262 3 0 28 -34 54 -75 27 -42 52 -73 57 -70 5 3
-14 36 -42 73 -27 37 -52 73 -55 79 -8 20 -72 27 -111 13 -32 -11 -37 -11 -52
8 -14 17 -47 26 -172 46 -85 14 -162 26 -171 26 -8 0 -30 -22 -48 -49z m101
-236 c0 -16 -6 -25 -16 -25 -11 0 -14 5 -10 16 3 9 6 20 6 25 0 5 5 9 10 9 6
0 10 -11 10 -25z m130 -20 c0 -16 -6 -25 -15 -25 -9 0 -15 9 -15 25 0 16 6 25
15 25 9 0 15 -9 15 -25z m-367 -91 c-7 -19 -23 -7 -23 18 0 17 3 18 14 8 8 -6
12 -18 9 -26z"/>
<path d="M8923 5847 c-18 -12 -33 -24 -33 -27 0 -3 28 -24 62 -46 62 -41 63
-41 95 -26 18 9 33 19 33 24 0 5 -13 2 -30 -7 -24 -13 -33 -13 -50 -3 -25 16
-25 24 -2 38 13 8 10 9 -18 5 -23 -4 -42 -1 -54 8 -19 14 -19 15 12 31 18 9
32 19 32 21 0 9 -15 4 -47 -18z"/>
<path d="M6663 5830 c-12 -14 -17 -39 -18 -84 l0 -65 55 -25 c30 -13 69 -27
85 -30 19 -4 38 -19 53 -42 33 -51 101 -69 166 -44 51 19 57 81 10 102 -21 10
-23 16 -18 43 8 44 -17 89 -65 120 -22 13 -42 29 -46 35 -9 15 -57 12 -81 -4
-17 -12 -22 -12 -39 0 -28 21 -82 18 -102 -6z"/>
<path d="M3167 5833 c-13 -13 -7 -51 11 -64 15 -13 16 -12 3 3 -8 11 -11 28
-7 43 6 25 5 30 -7 18z"/>
<path d="M3378 5827 c6 -7 12 -35 15 -62 3 -48 3 -48 5 13 2 51 -1 62 -14 62
-12 0 -14 -3 -6 -13z"/>
<path d="M3670 5831 c0 -6 4 -13 10 -16 6 -3 7 1 4 9 -7 18 -14 21 -14 7z"/>
<path d="M3766 5824 c-8 -22 -4 -25 11 -9 7 8 9 16 4 19 -5 3 -12 -1 -15 -10z"/>
<path d="M3270 5812 c0 -12 4 -22 9 -22 5 0 11 -6 14 -12 2 -7 2 -2 0 12 -6
34 -23 50 -23 22z"/>
<path d="M3342 5810 c0 -14 2 -19 5 -12 2 6 2 18 0 25 -3 6 -5 1 -5 -13z"/>
<path d="M3575 5806 c-6 -6 -8 -27 -5 -46 l6 -35 5 45 c7 53 7 51 -6 36z"/>
<path d="M6122 5770 c0 -30 2 -46 5 -35 2 11 9 30 15 42 6 13 8 26 5 30 -4 3
-7 0 -8 -8 0 -8 -4 -6 -9 6 -6 14 -8 4 -8 -35z"/>
<path d="M6168 5814 c-5 -4 -8 -26 -7 -48 l1 -41 9 33 c11 37 9 68 -3 56z"/>
<path d="M3500 5791 c0 -25 6 -27 13 -6 4 8 2 17 -3 20 -6 4 -10 -3 -10 -14z"/>
<path d="M3650 5794 c0 -12 8 -24 18 -26 12 -4 18 1 18 13 0 10 -4 15 -9 12
-5 -3 -13 1 -18 8 -7 11 -9 9 -9 -7z"/>
<path d="M6205 5800 c3 -5 8 -10 11 -10 2 0 4 5 4 10 0 6 -5 10 -11 10 -5 0
-7 -4 -4 -10z"/>
<path d="M3811 5779 c-1 -14 6 -34 15 -45 8 -10 12 -13 8 -5 -4 8 -11 28 -15
45 -6 29 -7 29 -8 5z"/>
<path d="M3880 5785 c0 -8 4 -15 10 -15 5 0 7 7 4 15 -4 8 -8 15 -10 15 -2 0
-4 -7 -4 -15z"/>
<path d="M6491 5753 c1 -28 4 -38 6 -23 3 14 9 30 15 37 10 13 3 33 -13 33 -5
0 -8 -21 -8 -47z"/>
<path d="M6533 5753 c-1 -42 0 -44 7 -18 l8 30 2 -30 c1 -16 4 -24 7 -17 7 17
-6 82 -16 82 -4 0 -8 -21 -8 -47z"/>
<path d="M6580 5790 c0 -6 5 -8 12 -4 8 5 9 2 5 -10 -14 -37 -19 -66 -11 -66
5 0 10 10 11 23 1 12 4 31 5 41 2 10 -3 21 -9 23 -7 3 -13 0 -13 -7z"/>
<path d="M3712 5750 c0 -14 2 -19 5 -12 2 6 2 18 0 25 -3 6 -5 1 -5 -13z"/>
<path d="M3651 5744 c0 -11 3 -14 6 -6 3 7 2 16 -1 19 -3 4 -6 -2 -5 -13z"/>
<path d="M3300 5735 c0 -8 5 -15 10 -15 6 0 10 7 10 15 0 8 -4 15 -10 15 -5 0
-10 -7 -10 -15z"/>
<path d="M3767 5735 c3 -8 9 -12 14 -9 12 7 11 11 -5 17 -10 4 -13 1 -9 -8z"/>
<path d="M6215 5730 c-3 -5 -1 -10 4 -10 6 0 11 5 11 10 0 6 -2 10 -4 10 -3 0
-8 -4 -11 -10z"/>
<path d="M2030 5675 c-7 -9 -10 -18 -7 -21 3 -3 10 4 17 15 13 25 8 27 -10 6z"/>
<path d="M3153 5652 c-1 -42 -1 -42 -60 -52 l-48 -9 48 3 c43 3 47 2 47 -19 0
-13 2 -30 5 -38 4 -8 -8 -23 -29 -38 -20 -13 -36 -27 -36 -31 0 -3 16 -12 35
-18 37 -12 48 -43 20 -54 -11 -4 -15 -21 -15 -62 l0 -56 37 7 c49 9 56 14 50
36 -4 14 0 19 14 19 17 0 19 -8 19 -75 0 -43 4 -75 10 -75 9 0 16 66 11 118
-1 17 4 22 20 22 12 0 27 7 33 15 9 12 14 12 33 -4 20 -17 22 -28 24 -162 2
-95 -1 -151 -9 -165 -16 -30 7 -49 43 -37 l26 8 1 137 1 137 33 47 c19 26 36
55 39 65 7 22 43 35 58 20 5 -5 11 -34 13 -63 1 -29 3 -59 3 -65 1 -7 6 -13
11 -13 6 0 10 28 10 63 1 46 6 68 19 84 18 22 20 22 56 7 31 -13 39 -13 46 -2
7 10 -8 18 -59 34 l-67 21 37 7 c20 3 39 14 42 23 7 18 -20 53 -42 53 -9 0
-12 6 -8 15 4 10 -3 20 -19 27 -23 10 -24 13 -10 28 32 35 -35 100 -68 65 -7
-7 -25 -35 -42 -63 -16 -29 -35 -52 -41 -52 -6 0 -21 23 -34 50 -13 28 -29 55
-36 61 -7 5 -59 11 -116 12 l-104 2 -1 -33z m320 -268 c9 -9 -23 -55 -34 -49
-4 3 -3 17 3 30 11 25 20 30 31 19z"/>
<path d="M1995 5614 c-9 -14 -15 -27 -13 -30 2 -2 12 10 22 26 21 37 15 40 -9
4z"/>
<path d="M4815 5631 c-45 -19 -110 -29 -119 -20 -15 14 -37 11 -53 -8 -10 -13
-16 -15 -19 -5 -10 23 -53 13 -76 -18 -15 -21 -27 -28 -41 -24 -24 8 -57 -22
-57 -53 0 -12 -9 -32 -20 -43 -11 -11 -20 -27 -20 -36 0 -26 131 -16 162 13
13 11 40 23 60 27 23 4 46 18 62 37 21 25 31 29 54 24 38 -8 82 10 82 33 0 10
9 27 20 37 39 35 17 57 -35 36z"/>
<path d="M2071 5604 c0 -11 3 -14 6 -6 3 7 2 16 -1 19 -3 4 -6 -2 -5 -13z"/>
<path d="M1798 5585 c2 -15 0 -25 -7 -25 -6 0 -11 9 -11 21 0 15 -5 20 -22 17
-18 -2 -24 -11 -26 -36 -3 -31 -2 -32 25 -26 15 4 36 11 46 16 20 10 23 58 3
58 -9 0 -12 -8 -8 -25z m-28 -17 c0 -16 -3 -19 -11 -11 -6 6 -8 16 -5 22 11
17 16 13 16 -11z"/>
<path d="M2980 5589 c0 -11 30 -12 48 0 9 5 3 8 -17 9 -17 0 -31 -4 -31 -9z"/>
<path d="M6363 5497 c-47 -12 -83 -26 -83 -33 0 -9 20 -6 73 8 47 13 112 21
187 23 138 5 143 5 105 15 -58 15 -198 8 -282 -13z"/>
<path d="M6995 5494 c-29 -31 -33 -74 -7 -90 10 -7 38 -15 62 -18 76 -12 144
-28 170 -41 58 -30 81 31 30 80 -26 25 -34 27 -74 22 -31 -5 -48 -3 -53 6 -14
21 -57 54 -80 61 -17 6 -29 1 -48 -20z"/>
<path d="M2188 5493 c6 -2 18 -2 25 0 6 3 1 5 -13 5 -14 0 -19 -2 -12 -5z"/>
<path d="M8250 5463 c0 -4 19 -21 41 -37 48 -34 46 -42 -5 -21 -21 9 -46 13
-57 10 -20 -7 -20 -8 -3 -26 25 -28 11 -34 -38 -14 -75 30 -75 28 0 -15 82
-47 105 -45 78 9 -19 36 -17 37 42 14 65 -25 71 -5 12 42 -54 43 -70 52 -70
38z"/>
<path d="M3755 5400 c11 -5 29 -8 40 -8 16 0 15 2 -5 8 -34 11 -60 11 -35 0z"/>
<path d="M2943 5338 c-19 -9 -23 -19 -23 -55 l0 -45 43 7 c54 9 59 14 55 61
-3 33 -7 39 -28 41 -14 1 -35 -3 -47 -9z"/>
<path d="M1870 5299 c0 -5 5 -7 10 -4 6 3 10 8 10 11 0 2 -4 4 -10 4 -5 0 -10
-5 -10 -11z"/>
<path d="M1933 5303 c-7 -2 -10 -10 -7 -18 4 -10 -1 -12 -18 -9 -22 5 -23 5
-3 -10 18 -15 20 -15 33 10 15 28 14 34 -5 27z"/>
<path d="M7213 5299 c-7 -7 -13 -23 -13 -36 0 -13 -4 -23 -9 -23 -5 0 -24 -12
-41 -27 -26 -22 -31 -31 -26 -56 5 -22 1 -33 -16 -47 l-22 -17 37 -35 c31 -30
37 -42 37 -77 0 -30 4 -41 15 -41 10 0 15 -10 15 -31 0 -26 6 -33 40 -47 l40
-17 0 -91 c0 -75 3 -93 16 -98 9 -3 19 -4 22 -2 4 2 3 49 -2 105 -7 79 -7 103
4 116 7 9 19 14 26 11 19 -7 34 25 34 70 0 36 1 36 19 20 10 -9 35 -19 54 -23
21 -3 39 -12 42 -22 3 -9 20 -25 37 -36 42 -24 48 -33 48 -72 0 -17 7 -39 16
-47 17 -18 60 -21 69 -6 4 7 13 6 26 -1 26 -14 66 11 75 47 7 28 -1 40 -30 46
-13 2 -22 17 -31 50 -14 58 -30 78 -61 78 -22 0 -24 4 -24 44 0 62 -7 76 -41
76 -30 0 -41 14 -53 71 -7 34 -51 52 -112 47 -44 -3 -48 -1 -68 29 -22 34 -44
41 -64 21 -8 -8 -16 -6 -29 11 -14 18 -20 20 -30 10z"/>
<path d="M8981 5286 c-9 -10 -7 -19 8 -37 17 -21 22 -22 56 -12 41 13 61 9 70
-14 6 -18 -13 -35 -32 -28 -7 2 -13 0 -13 -5 0 -13 16 -13 41 0 45 25 -4 76
-63 65 -58 -10 -79 24 -23 38 16 4 14 5 -6 6 -15 0 -32 -5 -38 -13z"/>
<path d="M6781 5243 c1 -27 4 -39 6 -28 3 11 10 26 15 32 12 15 4 43 -12 43
-5 0 -9 -21 -9 -47z"/>
<path d="M6828 5267 c-4 -19 -1 -27 8 -27 15 0 16 6 5 35 -7 17 -8 17 -13 -8z"/>
<path d="M6872 5268 c1 -13 6 -29 12 -36 7 -10 6 -16 -4 -22 -8 -5 -11 -12 -8
-15 10 -11 28 4 28 24 0 9 -5 22 -11 28 -8 8 -8 13 0 17 16 10 14 26 -3 26 -9
0 -14 -9 -14 -22z"/>
<path d="M1958 5264 c-5 -4 -8 -19 -8 -33 0 -18 3 -22 11 -14 6 6 9 21 7 33
-1 12 -6 18 -10 14z"/>
<path d="M450 5246 c0 -2 7 -7 16 -10 8 -3 12 -2 9 4 -6 10 -25 14 -25 6z"/>
<path d="M538 5243 c6 -2 18 -2 25 0 6 3 1 5 -13 5 -14 0 -19 -2 -12 -5z"/>
<path d="M730 5240 c0 -5 7 -7 15 -4 8 4 15 8 15 10 0 2 -7 4 -15 4 -8 0 -15
-4 -15 -10z"/>
<path d="M794 5236 c-3 -8 -4 -23 -2 -33 3 -11 6 -6 9 15 6 34 2 42 -7 18z"/>
<path d="M880 5242 c0 -4 10 -13 23 -21 22 -14 22 -14 3 8 -20 22 -26 25 -26
13z"/>
<path d="M926 5242 c-2 -4 -1 -14 5 -22 7 -12 9 -10 9 8 0 23 -5 28 -14 14z"/>
<path d="M970 5239 c0 -5 5 -7 10 -4 6 3 10 8 10 11 0 2 -4 4 -10 4 -5 0 -10
-5 -10 -11z"/>
<path d="M1027 5242 c6 -4 13 -30 15 -57 l3 -50 5 58 c5 52 3 57 -15 57 -13 0
-16 -3 -8 -8z"/>
<path d="M1093 5200 c0 -31 2 -41 4 -22 3 18 10 32 18 32 8 0 15 -14 18 -32 3
-23 4 -17 5 17 0 28 -2 44 -5 38 -7 -19 -31 -16 -36 5 -3 9 -4 -8 -4 -38z"/>
<path d="M1160 5225 c0 -14 2 -25 4 -25 2 0 6 11 8 25 3 14 1 25 -3 25 -5 0
-9 -11 -9 -25z"/>
<path d="M1283 5195 c0 -33 2 -45 4 -27 2 18 2 45 0 60 -2 15 -4 0 -4 -33z"/>
<path d="M1367 5243 c-9 -9 -9 -41 1 -46 4 -3 7 8 7 24 0 16 0 29 -1 29 0 0
-4 -3 -7 -7z"/>
<path d="M502 5215 c0 -16 2 -22 5 -12 2 9 2 23 0 30 -3 6 -5 -1 -5 -18z"/>
<path d="M1251 5224 c0 -11 3 -14 6 -6 3 7 2 16 -1 19 -3 4 -6 -2 -5 -13z"/>
<path d="M6821 5214 c0 -11 3 -14 6 -6 3 7 2 16 -1 19 -3 4 -6 -2 -5 -13z"/>
<path d="M1565 5210 c-3 -5 -1 -10 4 -10 6 0 11 5 11 10 0 6 -2 10 -4 10 -3 0
-8 -4 -11 -10z"/>
<path d="M1221 5184 c0 -11 3 -14 6 -6 3 7 2 16 -1 19 -3 4 -6 -2 -5 -13z"/>
<path d="M441 5180 c-1 -23 15 -43 28 -36 6 4 11 15 10 24 0 14 -2 13 -9 -3
-8 -19 -8 -19 -18 5 -6 14 -11 18 -11 10z"/>
<path d="M1530 5184 c0 -3 7 -12 16 -21 11 -12 18 -13 27 -4 8 8 7 11 -6 11
-9 0 -17 5 -17 10 0 6 -4 10 -10 10 -5 0 -10 -3 -10 -6z"/>
<path d="M2008 5147 c-12 -29 -10 -63 3 -50 6 6 9 23 7 39 -2 24 -4 26 -10 11z"/>
<path d="M1488 5133 c6 -2 18 -2 25 0 6 3 1 5 -13 5 -14 0 -19 -2 -12 -5z"/>
<path d="M3237 5128 c6 -11 63 -10 63 0 0 5 -15 8 -34 8 -19 -1 -32 -4 -29 -8z"/>
<path d="M1500 5110 c0 -5 5 -10 11 -10 5 0 7 5 4 10 -3 6 -8 10 -11 10 -2 0
-4 -4 -4 -10z"/>
<path d="M2028 5077 c-9 -12 -41 -55 -72 -95 -31 -41 -56 -78 -56 -82 0 -5 9
-11 19 -15 21 -6 19 -32 -3 -47 -8 -6 -7 -10 1 -16 7 -5 13 -39 15 -87 l3 -79
34 82 c18 45 36 82 39 82 3 0 19 -12 34 -27 24 -23 28 -35 28 -80 0 -42 3 -53
16 -53 13 0 15 7 10 33 -12 72 -9 144 7 168 17 23 17 22 17 -40 0 -46 3 -62
13 -58 8 3 11 28 9 88 -2 63 1 89 12 104 14 19 15 15 16 -44 0 -45 3 -62 10
-55 7 7 10 49 8 105 l-3 94 -60 22 c-75 27 -76 27 -97 0z m-8 -227 c0 -5 -7
-10 -15 -10 -8 0 -15 5 -15 10 0 6 7 10 15 10 8 0 15 -4 15 -10z m50 -40 c0
-5 -2 -10 -4 -10 -3 0 -8 5 -11 10 -3 6 -1 10 4 10 6 0 11 -4 11 -10z"/>
<path d="M1475 5080 c28 -12 37 -12 30 0 -3 6 -16 10 -28 9 -21 0 -21 -1 -2
-9z"/>
<path d="M1960 5058 c0 -36 11 -31 15 7 2 14 -1 25 -6 25 -5 0 -9 -14 -9 -32z"/>
<path d="M1817 5069 c7 -7 15 -10 18 -7 3 3 -2 9 -12 12 -14 6 -15 5 -6 -5z"/>
<path d="M1578 5063 c7 -3 16 -2 19 1 4 3 -2 6 -13 5 -11 0 -14 -3 -6 -6z"/>
<path d="M1670 5060 c-12 -8 -10 -10 8 -10 13 0 20 4 17 10 -7 12 -6 12 -25 0z"/>
<path d="M1735 5050 l-30 -8 27 -1 c15 0 30 4 33 9 3 6 5 9 3 9 -2 -1 -16 -5
-33 -9z"/>
<path d="M2233 5053 c9 -2 25 -2 35 0 9 3 1 5 -18 5 -19 0 -27 -2 -17 -5z"/>
<path d="M1803 5033 c9 -2 23 -2 30 0 6 3 -1 5 -18 5 -16 0 -22 -2 -12 -5z"/>
<path d="M1918 5017 c-12 -29 -10 -63 3 -50 6 6 9 23 7 39 -2 24 -4 26 -10 11z"/>
<path d="M2305 5020 c-19 -8 -19 -9 3 -9 12 -1 22 4 22 9 0 6 -1 10 -2 9 -2 0
-12 -4 -23 -9z"/>
<path d="M3598 5016 c-21 -16 -22 -26 -5 -63 l12 -27 5 37 c7 49 24 43 23 -8
l0 -40 4 38 c6 53 23 46 25 -10 1 -37 2 -40 5 -15 6 45 23 40 23 -7 0 -22 5
-43 10 -46 6 -4 10 8 10 29 0 51 20 45 21 -6 1 -39 2 -40 8 -13 8 40 25 34 26
-9 0 -19 3 -38 8 -42 4 -4 7 7 7 24 0 54 20 35 21 -20 1 -34 4 -42 6 -23 8 51
23 53 23 3 0 -26 5 -50 10 -53 6 -4 10 8 10 29 0 57 20 42 22 -16 1 -44 2 -46
5 -15 6 51 23 47 24 -5 2 -30 3 -35 6 -15 6 40 23 33 24 -10 2 -31 3 -33 6
-10 6 39 23 34 23 -7 0 -19 5 -38 10 -41 6 -4 10 5 10 19 0 14 5 26 10 26 6 0
10 -21 10 -47 0 -45 14 -55 15 -10 0 42 20 27 26 -20 l6 -48 1 43 c3 62 22 51
22 -13 0 -54 1 -55 28 -55 38 0 62 28 62 74 0 46 -15 76 -39 76 -10 0 -24 11
-31 25 -8 16 -22 25 -37 25 -16 0 -23 6 -23 20 0 12 -14 29 -35 42 -20 13 -38
34 -41 48 -12 54 -16 60 -34 60 -12 0 -20 8 -22 23 -3 19 -10 22 -50 25 -27 2
-48 7 -48 13 0 5 -9 9 -20 9 -11 0 -29 6 -40 12 -16 10 -24 10 -40 0 -24 -15
-50 -16 -50 -2 0 14 -32 12 -52 -4z"/>
<path d="M4153 5007 c-32 -22 -33 -24 -33 -97 l0 -75 90 -28 90 -28 157 54
158 55 3 43 c2 24 0 40 -5 36 -4 -5 -8 -16 -8 -25 0 -33 -30 -18 -36 18 l-6
35 -2 -32 c-1 -38 -21 -45 -21 -8 0 14 -2 25 -5 25 -3 0 -53 -13 -112 -30 -58
-16 -112 -30 -120 -30 -7 0 -29 25 -49 55 -20 30 -44 55 -53 54 -9 0 -31 -10
-48 -22z m58 -67 c24 -13 28 -90 5 -90 -36 0 -46 12 -46 56 0 45 7 51 41 34z
m259 -25 c0 -24 -31 -51 -44 -38 -8 8 -8 48 1 56 3 4 15 7 25 7 12 0 18 -7 18
-25z m-99 -27 c-4 -20 -14 -34 -24 -36 -13 -3 -17 4 -17 32 0 31 3 36 24 36
21 0 23 -3 17 -32z"/>
<path d="M7045 4989 c-4 -22 -4 -43 -1 -46 3 -4 6 3 6 15 0 12 5 22 10 22 13
0 13 37 1 44 -5 4 -12 -12 -16 -35z"/>
<path d="M7101 5002 c-9 -22 -11 -36 -4 -40 5 -4 12 -14 15 -22 8 -25 14 21 8
60 l-5 35 -14 -33z"/>
<path d="M7000 4974 c0 -25 4 -43 9 -40 5 3 7 15 4 25 -3 10 0 22 6 25 16 10
13 36 -4 36 -11 0 -15 -12 -15 -46z"/>
<path d="M2934 4989 c-8 -14 5 -79 16 -79 6 0 10 9 10 20 0 11 5 20 10 20 17
0 11 25 -10 37 -13 9 -21 9 -26 2z m26 -29 c0 -5 -4 -10 -10 -10 -5 0 -10 5
-10 10 0 6 5 10 10 10 6 0 10 -4 10 -10z"/>
<path d="M4600 4990 c0 -5 5 -10 10 -10 6 0 10 5 10 10 0 6 -4 10 -10 10 -5 0
-10 -4 -10 -10z"/>
<path d="M1610 4921 c0 -25 4 -29 33 -34 41 -6 47 -2 47 34 0 27 -2 29 -40 29
-37 0 -40 -2 -40 -29z"/>
<path d="M3302 4920 c0 -14 2 -19 5 -12 2 6 2 18 0 25 -3 6 -5 1 -5 -13z"/>
<path d="M3343 4928 c-10 -18 11 -28 58 -28 35 0 49 4 49 14 0 10 -16 15 -51
18 -28 1 -53 0 -56 -4z"/>
<path d="M5784 4925 c-40 -17 -74 -61 -74 -96 0 -15 -4 -31 -10 -34 -24 -15
-7 -85 21 -85 10 0 19 -4 19 -10 0 -5 11 -12 25 -16 31 -8 50 -68 40 -132 -6
-39 -4 -43 12 -40 14 3 19 15 23 65 6 80 21 96 54 60 29 -31 48 -34 70 -11 21
21 20 33 -5 61 -24 24 -25 23 29 39 19 6 14 59 -8 79 -12 11 -20 31 -20 50 0
20 -8 39 -23 53 -25 24 -63 29 -69 10 -3 -8 -11 -6 -29 5 -20 13 -28 14 -55 2z
m56 -247 c0 -7 -4 -19 -9 -26 -7 -11 -10 -10 -15 3 -3 9 -4 21 0 26 8 13 24
11 24 -3z"/>
<path d="M2888 4893 c7 -3 16 -2 19 1 4 3 -2 6 -13 5 -11 0 -14 -3 -6 -6z"/>
<path d="M2630 4869 c0 -7 62 -29 83 -29 4 0 7 8 7 18 0 13 -9 17 -45 18 -25
0 -45 -3 -45 -7z"/>
<path d="M2741 4864 c0 -11 3 -14 6 -6 3 7 2 16 -1 19 -3 4 -6 -2 -5 -13z"/>
<path d="M1472 4857 c-39 -22 -79 -80 -85 -122 -3 -22 -8 -51 -12 -65 -5 -19
0 -32 19 -53 14 -16 26 -37 26 -47 0 -12 9 -22 23 -26 23 -5 24 -8 19 -78 -4
-62 -2 -74 13 -79 28 -12 35 1 35 69 0 62 1 64 21 54 41 -22 97 7 128 67 9 17
8 32 -4 65 -8 24 -15 56 -15 71 0 23 -6 31 -30 40 -25 10 -30 17 -30 45 0 51
-16 72 -53 72 -18 -1 -42 -6 -55 -13z"/>
<path d="M2300 4791 c-11 -37 -20 -71 -20 -75 0 -9 30 -8 31 2 1 4 3 22 5 41
2 19 8 39 13 45 5 6 12 21 15 34 6 16 3 22 -8 22 -10 0 -22 -23 -36 -69z"/>
<path d="M2464 4816 c1 -23 3 -55 4 -72 1 -21 7 -31 18 -31 14 0 15 8 10 51
-3 28 -6 60 -6 72 0 11 -6 21 -14 21 -10 0 -13 -12 -12 -41z"/>
<path d="M8737 4803 c-15 -15 -21 -16 -38 -5 -30 19 -54 7 -93 -48 l-36 -49
-28 16 c-33 19 -55 14 -75 -19 -25 -39 -30 -68 -13 -68 8 0 36 -20 62 -45 25
-25 50 -45 55 -45 5 0 9 -11 9 -24 0 -39 11 -56 35 -56 35 0 55 -30 48 -73 -5
-35 -4 -37 21 -37 23 0 26 4 26 35 0 30 3 35 23 35 27 0 63 35 69 65 2 12 13
21 28 23 34 5 50 20 50 46 0 12 9 29 20 39 26 22 26 57 0 64 -15 4 -18 11 -14
30 8 31 -18 61 -62 69 -29 5 -34 10 -34 35 0 34 -25 39 -53 12z"/>
<path d="M3570 4766 c0 -17 42 -16 48 2 2 7 -6 12 -22 12 -15 0 -26 -6 -26
-14z"/>
<path d="M3186 4751 c-8 -12 4 -70 15 -77 5 -3 9 3 9 13 0 11 5 24 11 30 7 7
9 19 6 27 -7 17 -32 22 -41 7z m24 -21 c0 -5 -4 -10 -10 -10 -5 0 -10 5 -10
10 0 6 5 10 10 10 6 0 10 -4 10 -10z"/>
<path d="M3570 4726 c0 -2 7 -6 15 -10 8 -3 15 -1 15 4 0 6 -7 10 -15 10 -8 0
-15 -2 -15 -4z"/>
<path d="M3657 4719 c-23 -13 -22 -29 2 -29 23 0 33 11 23 27 -5 8 -13 8 -25
2z"/>
<path d="M2819 4680 c-1 -5 -2 -16 -3 -22 -3 -19 4 -29 15 -22 6 4 6 11 -2 20
-9 11 -7 14 10 14 11 0 21 5 21 10 0 6 -9 10 -20 10 -11 0 -21 -4 -21 -10z"/>
<path d="M2610 4660 c0 -5 5 -10 10 -10 6 0 10 5 10 10 0 6 -4 10 -10 10 -5 0
-10 -4 -10 -10z"/>
<path d="M2650 4659 c0 -5 5 -7 10 -4 6 3 10 8 10 11 0 2 -4 4 -10 4 -5 0 -10
-5 -10 -11z"/>
<path d="M2755 4650 c-3 -5 -1 -10 4 -10 6 0 11 5 11 10 0 6 -2 10 -4 10 -3 0
-8 -4 -11 -10z"/>
<path d="M2600 4615 c-10 -13 -9 -15 9 -15 11 0 21 4 21 9 0 18 -18 21 -30 6z"/>
<path d="M2750 4589 c0 -11 4 -19 8 -19 5 0 15 -19 22 -42 10 -32 15 -38 18
-23 2 11 9 25 14 32 16 20 -11 71 -39 71 -16 0 -23 -6 -23 -19z m60 -33 c0
-11 -19 -15 -25 -6 -3 5 1 10 9 10 9 0 16 -2 16 -4z"/>
<path d="M4830 4567 c0 -32 27 -84 47 -91 9 -4 25 -4 35 0 29 9 126 -37 130
-61 2 -16 10 -20 38 -18 64 3 99 14 93 29 -3 8 -1 14 5 14 6 0 9 8 7 18 -2 9
-4 21 -4 26 -1 5 -14 6 -31 3 -22 -5 -30 -3 -30 8 0 8 -1 15 -3 15 -1 0 -63
18 -137 40 -74 22 -138 40 -142 40 -5 0 -8 -11 -8 -23z m70 -63 c0 -8 -7 -14
-15 -14 -8 0 -15 9 -15 20 0 13 5 18 15 14 8 -4 15 -12 15 -20z m188 -77 c2
-10 -3 -17 -12 -17 -18 0 -29 16 -21 31 9 14 29 6 33 -14z"/>
<path d="M2440 4577 c0 -1 -4 -17 -9 -35 -6 -20 -6 -32 0 -32 5 0 9 11 9 25 0
19 5 25 21 25 11 0 17 5 14 10 -5 9 -35 15 -35 7z"/>
<path d="M3068 4531 c-38 -20 -68 -42 -68 -49 0 -9 7 -11 20 -7 14 4 20 2 20
-9 0 -8 -9 -18 -20 -21 -25 -8 -26 -35 -1 -35 10 0 31 7 47 15 20 10 32 11 41
3 10 -8 13 -7 13 5 0 9 16 24 35 33 28 13 33 19 24 30 -8 10 -16 11 -29 4 -11
-6 -21 -6 -24 -1 -8 12 3 41 15 41 5 0 9 7 9 15 0 20 -3 19 -82 -24z m42 -34
c0 -19 -47 -40 -56 -25 -8 12 22 38 43 38 7 0 13 -6 13 -13z"/>
<path d="M2225 4540 c-10 -11 -13 -20 -7 -20 6 0 16 9 22 20 6 11 9 20 7 20
-2 0 -12 -9 -22 -20z"/>
<path d="M4302 4528 c-6 -6 -12 -22 -12 -35 0 -16 -8 -27 -25 -33 -15 -6 -25
-17 -25 -29 0 -11 -4 -23 -10 -26 -17 -10 -11 -50 10 -73 12 -12 38 -25 60
-28 49 -8 59 -32 52 -126 -4 -64 -3 -68 17 -68 20 0 21 3 14 89 -6 93 7 153
42 188 11 11 12 19 4 34 -6 12 -8 26 -6 34 3 7 -7 26 -21 43 -30 34 -81 49
-100 30z m68 -213 c0 -8 -4 -15 -10 -15 -5 0 -10 7 -10 15 0 8 5 15 10 15 6 0
10 -7 10 -15z"/>
<path d="M5432 4516 c-13 -7 -29 -23 -36 -37 -7 -13 -24 -44 -38 -69 -19 -34
-25 -59 -24 -100 1 -49 3 -54 28 -61 18 -4 34 -2 48 8 19 13 24 13 31 2 6 -10
9 -11 9 -1 0 6 4 12 8 12 5 0 9 -24 11 -52 3 -59 4 -63 26 -55 9 4 15 19 15
41 0 24 5 36 18 39 16 4 16 5 -1 6 -15 1 -18 8 -15 42 2 28 9 45 21 50 9 5 25
14 35 19 9 6 27 14 40 20 17 7 22 17 20 42 -1 18 -5 41 -10 50 -12 26 -66 51
-93 44 -13 -3 -34 -2 -47 3 -16 6 -32 5 -46 -3z m46 -188 l3 -32 -21 21 c-25
27 -26 43 -2 43 13 0 18 -9 20 -32z"/>
<path d="M5901 4499 c-7 -12 -10 -23 -8 -26 3 -3 11 5 17 17 15 28 8 35 -9 9z"/>
<path d="M2160 4491 c0 -18 18 -21 30 -6 10 13 9 15 -9 15 -11 0 -21 -4 -21
-9z"/>
<path d="M2474 4485 c-4 -9 -1 -29 6 -45 l13 -30 13 26 c18 34 18 50 -2 58
-22 8 -24 8 -30 -9z m31 -15 c3 -5 -1 -10 -10 -10 -9 0 -13 5 -10 10 3 6 8 10
10 10 2 0 7 -4 10 -10z"/>
<path d="M5942 4424 c-5 -10 -24 -19 -43 -21 -18 -2 -43 -13 -55 -24 -14 -13
-28 -18 -36 -13 -7 4 -10 4 -6 -1 5 -5 -1 -14 -12 -22 -11 -8 -20 -20 -20 -28
0 -7 -13 -18 -30 -24 -16 -5 -30 -16 -30 -24 0 -28 40 -26 97 4 30 16 60 29
67 29 7 0 29 18 50 39 22 22 53 45 70 52 42 17 42 17 20 34 -26 19 -61 19 -72
-1z"/>
<path d="M7697 4381 c-4 -19 -7 -47 -7 -64 0 -29 1 -30 15 -11 16 21 18 57 6
89 -7 16 -9 14 -14 -14z"/>
<path d="M3770 4383 c0 -13 5 -23 10 -23 13 0 13 11 0 30 -8 12 -10 11 -10 -7z"/>
<path d="M3840 4345 c0 -30 3 -55 8 -55 4 0 7 25 7 55 0 30 -3 55 -7 55 -5 0
-8 -25 -8 -55z"/>
<path d="M4023 4393 c9 -2 23 -2 30 0 6 3 -1 5 -18 5 -16 0 -22 -2 -12 -5z"/>
<path d="M3982 4365 c0 -16 2 -22 5 -12 2 9 2 23 0 30 -3 6 -5 -1 -5 -18z"/>
<path d="M3661 4364 c0 -12 7 -28 17 -35 15 -12 16 -12 6 1 -7 8 -14 24 -17
35 -4 19 -5 19 -6 -1z"/>
<path d="M3933 4335 c0 -27 2 -38 4 -22 2 15 2 37 0 50 -2 12 -4 0 -4 -28z"/>
<path d="M4033 4335 c0 -27 2 -38 4 -22 2 15 2 37 0 50 -2 12 -4 0 -4 -28z"/>
<path d="M5740 4360 c-8 -5 -10 -10 -5 -10 6 0 17 5 25 10 8 5 11 10 5 10 -5
0 -17 -5 -25 -10z"/>
<path d="M3795 4325 c7 -33 12 -41 20 -33 3 3 -2 18 -11 34 l-16 29 7 -30z"/>
<path d="M3130 4317 c0 -13 -3 -45 -6 -71 -6 -43 -5 -46 15 -46 21 0 22 4 19
67 -2 42 -8 68 -15 71 -8 2 -13 -6 -13 -21z"/>
<path d="M3287 4323 c4 -10 13 -28 21 -41 8 -13 15 -37 16 -54 1 -21 6 -32 19
-34 22 -3 21 3 -4 81 -16 50 -25 65 -40 65 -13 0 -17 -5 -12 -17z"/>
<path d="M5618 4313 c7 -3 16 -2 19 1 4 3 -2 6 -13 5 -11 0 -14 -3 -6 -6z"/>
<path d="M5538 4293 c7 -3 16 -2 19 1 4 3 -2 6 -13 5 -11 0 -14 -3 -6 -6z"/>
<path d="M8866 4290 c-36 -11 -76 -48 -76 -71 0 -9 -7 -19 -15 -23 -20 -7 -19
-35 0 -43 9 -3 34 -23 56 -45 l40 -40 -3 -81 c-3 -73 -1 -82 16 -85 31 -6 37
11 28 74 -11 68 2 99 46 109 15 3 41 16 57 29 l30 24 -23 46 c-13 25 -30 46
-38 46 -8 0 -20 12 -27 28 -19 44 -34 49 -91 32z m29 -200 c3 -5 2 -10 -4 -10
-5 0 -13 5 -16 10 -3 6 -2 10 4 10 5 0 13 -4 16 -10z"/>
<path d="M1560 4220 c0 -5 7 -10 16 -10 8 0 12 5 9 10 -3 6 -10 10 -16 10 -5
0 -9 -4 -9 -10z"/>
<path d="M1610 4204 c0 -14 4 -23 10 -19 6 4 7 11 4 17 -4 6 0 14 7 19 11 7
10 9 -3 9 -13 0 -18 -8 -18 -26z"/>
<path d="M1760 4226 c0 -4 7 -14 15 -22 8 -9 15 -11 15 -6 0 5 -7 15 -15 22
-8 7 -15 9 -15 6z"/>
<path d="M1810 4204 c0 -14 4 -23 10 -19 6 4 7 11 4 17 -4 6 0 14 7 19 11 7
10 9 -3 9 -13 0 -18 -8 -18 -26z"/>
<path d="M1910 4226 c0 -2 7 -7 16 -10 8 -3 12 -2 9 4 -6 10 -25 14 -25 6z"/>
<path d="M1970 4220 c0 -5 5 -10 10 -10 6 0 10 5 10 10 0 6 -4 10 -10 10 -5 0
-10 -4 -10 -10z"/>
<path d="M2127 4223 c-11 -11 -8 -43 4 -43 6 0 8 7 5 17 -4 9 -1 20 6 25 8 4
8 8 2 8 -6 0 -14 -3 -17 -7z"/>
<path d="M2187 4223 c-4 -3 -7 -11 -7 -17 0 -6 5 -5 12 2 6 6 9 14 7 17 -3 3
-9 2 -12 -2z"/>
<path d="M2740 4206 c0 -27 50 -126 64 -126 11 0 9 14 -11 64 -24 60 -53 94
-53 62z"/>
<path d="M2940 4213 c0 -7 50 -133 56 -142 2 -2 10 -1 19 3 14 5 11 16 -21 76
-32 61 -54 87 -54 63z"/>
<path d="M7910 4205 c-8 -10 -28 -14 -55 -13 -49 1 -65 -6 -65 -31 0 -15 -11
-19 -55 -24 -73 -7 -119 -34 -123 -71 -2 -16 0 -32 5 -37 14 -14 172 35 281
87 l104 49 -26 28 c-28 30 -48 34 -66 12z"/>
<path d="M1923 4183 c-17 -6 -17 -20 0 -26 8 -3 13 3 13 14 0 11 0 19 -1 18 0
0 -6 -3 -12 -6z"/>
<path d="M2180 4183 c0 -6 8 -17 18 -24 16 -13 16 -13 2 6 -8 11 -16 22 -17
24 -2 2 -3 0 -3 -6z"/>
<path d="M2011 4164 c0 -11 3 -14 6 -6 3 7 2 16 -1 19 -3 4 -6 -2 -5 -13z"/>
<path d="M2072 4150 c0 -19 2 -27 5 -17 2 9 2 25 0 35 -3 9 -5 1 -5 -18z"/>
<path d="M1550 4145 c0 -5 4 -16 9 -24 11 -17 31 -6 31 17 0 15 -2 15 -10 2
-9 -13 -11 -13 -20 0 -5 8 -10 11 -10 5z"/>
<path d="M2040 4136 c0 -9 -4 -14 -10 -11 -5 3 -10 1 -10 -4 0 -6 5 -11 10
-11 13 0 25 28 16 37 -3 4 -6 -1 -6 -11z"/>
<path d="M6170 4130 c-14 -14 -35 -20 -72 -21 l-53 -2 55 -8 c30 -4 67 -10 83
-14 26 -7 57 7 57 26 0 11 -29 39 -41 39 -5 0 -18 -9 -29 -20z m40 -24 c-15
-15 -33 4 -19 20 10 12 14 12 20 2 5 -7 4 -17 -1 -22z"/>
<path d="M1671 4128 c-1 -10 6 -18 14 -18 8 0 15 5 15 11 0 5 -4 8 -9 5 -5 -4
-12 0 -14 6 -3 8 -6 6 -6 -4z"/>
<path d="M1760 4130 c0 -5 5 -10 11 -10 5 0 7 5 4 10 -3 6 -8 10 -11 10 -2 0
-4 -4 -4 -10z"/>
<path d="M5861 4129 c-13 -5 -33 -7 -43 -3 -17 5 -19 1 -16 -27 4 -38 27 -51
35 -20 5 19 12 21 102 22 76 0 91 2 71 11 -14 5 -41 10 -60 9 -26 0 -31 2 -20
9 20 13 -36 12 -69 -1z"/>
<path d="M1970 4119 c0 -5 5 -7 10 -4 6 3 10 8 10 11 0 2 -4 4 -10 4 -5 0 -10
-5 -10 -11z"/>
<path d="M8133 4090 c-70 -15 -149 -80 -97 -80 21 0 17 -21 -6 -27 -44 -12 -5
-63 48 -63 24 0 40 -10 69 -41 60 -64 65 -79 64 -201 l-1 -109 27 3 28 3 -3
76 -4 76 47 8 c42 6 50 4 74 -19 24 -23 33 -25 74 -20 26 4 50 11 53 15 3 5 1
24 -5 43 -7 27 -6 38 5 47 8 6 14 20 14 29 0 23 -48 120 -60 120 -11 0 -45 59
-53 92 -10 40 -82 65 -139 49 -27 -7 -54 -8 -73 -3 -16 5 -44 5 -62 2z m57
-195 c7 -8 19 -15 26 -15 8 0 14 -10 14 -25 0 -25 -1 -25 -25 -9 -23 15 -45
43 -45 58 0 11 18 6 30 -9z m170 -35 c0 -10 -91 -102 -96 -97 -3 3 -2 27 1 53
l7 49 44 1 c24 0 44 -2 44 -6z"/>
<path d="M2530 3990 c0 -5 5 -10 11 -10 5 0 7 5 4 10 -3 6 -8 10 -11 10 -2 0
-4 -4 -4 -10z"/>
<path d="M7685 3956 c-27 -13 -57 -32 -65 -42 -27 -34 -70 -128 -62 -135 23
-23 104 -43 172 -43 98 0 118 6 179 54 l51 41 -17 27 c-71 115 -154 146 -258
98z"/>
<path d="M9442 3890 c0 -14 2 -19 5 -12 2 6 2 18 0 25 -3 6 -5 1 -5 -13z"/>
<path d="M9532 3828 l2 -83 5 74 c6 73 6 73 25 52 23 -25 36 -27 36 -5 0 8 -4
13 -9 10 -4 -3 -16 3 -26 14 -10 11 -22 20 -27 20 -4 0 -7 -37 -6 -82z"/>
<path d="M9600 3895 c0 -8 4 -15 8 -15 5 0 10 -30 11 -67 3 -98 11 -91 11 10
0 71 -3 87 -15 87 -8 0 -15 -7 -15 -15z"/>
<path d="M9330 3896 c0 -2 16 -6 35 -8 19 -2 35 0 35 4 0 4 -16 8 -35 8 -19 0
-35 -2 -35 -4z"/>
<path d="M9465 3881 c-3 -12 -11 -21 -16 -21 -5 0 -9 -9 -9 -20 0 -11 4 -20 9
-20 5 0 14 -14 21 -30 7 -17 17 -33 22 -36 5 -3 0 13 -13 37 -18 37 -20 48
-11 73 7 16 10 31 8 34 -2 2 -7 -6 -11 -17z"/>
<path d="M828 3884 c-5 -4 -8 -16 -8 -26 0 -10 -6 -18 -14 -18 -22 0 -40 -54
-26 -79 6 -12 8 -36 5 -55 -6 -27 -2 -38 19 -61 21 -23 31 -26 57 -21 l31 6
-7 -61 c-6 -49 -5 -61 6 -57 9 3 14 22 14 58 0 49 2 54 25 60 34 8 51 45 48
106 -2 33 2 57 11 68 19 22 6 45 -35 65 -33 17 -116 26 -126 15z"/>
<path d="M9723 3869 c11 -7 23 -7 35 0 14 9 11 10 -18 10 -29 0 -32 -1 -17
-10z"/>
<path d="M9806 3872 c-3 -5 1 -9 9 -9 8 0 15 4 15 9 0 4 -4 8 -9 8 -6 0 -12
-4 -15 -8z"/>
<path d="M9367 3837 c-3 -9 -17 -18 -29 -18 -18 -1 -19 -2 -5 -6 13 -3 16 -10
12 -21 -15 -37 -14 -55 1 -20 9 20 22 38 29 40 8 2 10 10 5 22 -6 17 -7 18
-13 3z"/>
<path d="M9832 3815 c0 -16 2 -22 5 -12 2 9 2 23 0 30 -3 6 -5 -1 -5 -18z"/>
<path d="M4123 3770 c-18 -28 -33 -53 -33 -57 0 -11 99 -77 105 -71 4 3 -21
113 -38 170 -1 4 -17 -15 -34 -42z"/>
<path d="M7027 3809 c-10 -6 -35 -8 -58 -4 -51 9 -97 -9 -105 -41 -3 -13 -21
-32 -40 -44 -20 -11 -40 -33 -46 -50 -9 -28 -13 -30 -44 -24 -27 5 -38 1 -58
-20 -15 -14 -26 -31 -26 -39 0 -8 -17 -26 -39 -40 -54 -36 -85 -89 -78 -134 4
-19 8 -38 11 -40 10 -10 70 32 146 104 90 85 277 218 319 228 14 3 36 15 49
25 23 19 45 73 34 84 -9 9 -45 6 -65 -5z"/>
<path d="M9743 3785 c0 -22 2 -30 4 -17 2 12 2 30 0 40 -3 9 -5 -1 -4 -23z"/>
<path d="M9442 3775 c0 -16 2 -22 5 -12 2 9 2 23 0 30 -3 6 -5 -1 -5 -18z"/>
<path d="M9807 3755 c3 -8 9 -12 14 -9 12 7 11 11 -5 17 -10 4 -13 1 -9 -8z"/>
<path d="M8687 3713 c-4 -3 -7 -17 -7 -30 0 -15 -6 -23 -18 -23 -10 0 -28 -7
-41 -16 -17 -13 -22 -24 -19 -46 3 -21 0 -32 -14 -39 -24 -13 -23 -46 2 -61
11 -7 20 -21 20 -31 0 -10 8 -21 18 -24 24 -10 39 -26 44 -49 2 -10 17 -28 35
-39 27 -17 32 -26 35 -70 2 -39 7 -51 21 -53 17 -3 19 2 17 50 -3 75 -3 77 25
88 20 8 25 16 25 43 0 23 8 40 25 55 14 12 25 28 25 35 0 7 10 17 22 22 36 17
45 41 27 73 -12 21 -22 27 -45 25 -26 -2 -32 3 -49 40 -16 33 -26 43 -49 45
-16 2 -32 -2 -37 -9 -6 -10 -12 -10 -27 4 -21 19 -25 20 -35 10z"/>
<path d="M1151 3689 c-24 -10 -65 -56 -66 -74 0 -5 -6 -21 -14 -34 -11 -21
-11 -26 8 -45 85 -85 83 -79 80 -179 -3 -89 -3 -92 20 -95 22 -4 22 -2 15 67
-8 88 4 123 50 139 19 7 42 24 51 39 15 22 15 29 4 52 -7 14 -12 31 -10 38 1
7 -12 19 -28 27 -20 11 -31 25 -33 43 -3 31 -34 40 -77 22z m34 -227 c-3 -3
-11 0 -18 7 -9 10 -8 11 6 5 10 -3 15 -9 12 -12z"/>
<path d="M9467 3694 c-11 -11 -8 -26 3 -19 6 4 11 -8 11 -27 2 -30 2 -30 6 -6
5 29 -9 63 -20 52z"/>
<path d="M9535 3689 c-4 -6 -5 -12 -2 -15 2 -3 7 2 10 11 7 17 1 20 -8 4z"/>
<path d="M9375 3679 c-4 -6 -4 -13 -1 -16 3 -4 6 -1 6 7 0 10 3 10 15 0 13
-11 14 -10 9 4 -7 18 -20 21 -29 5z"/>
<path d="M9611 3613 c0 -46 2 -83 7 -83 4 0 6 26 4 57 -5 101 -9 111 -11 26z"/>
<path d="M9783 3683 c14 -4 17 -17 17 -84 0 -44 4 -79 10 -79 6 0 7 31 3 79
-6 78 -5 79 18 84 13 2 4 4 -21 4 -25 1 -37 -1 -27 -4z"/>
<path d="M1721 3658 c-18 -5 -45 -17 -60 -26 -42 -27 -131 -125 -131 -144 0
-19 15 -24 25 -8 4 6 18 1 35 -12 32 -23 31 -45 -1 -28 -10 6 -19 8 -19 5 0
-3 16 -13 35 -21 50 -20 113 -9 147 28 14 15 37 28 50 28 28 0 68 54 68 92 0
25 -57 88 -80 88 -4 0 -14 2 -22 4 -7 2 -28 0 -47 -6z m-41 -78 c45 -23 46
-26 21 -59 -20 -26 -39 -24 -80 8 -24 18 -24 18 -5 44 10 15 20 27 22 27 1 0
21 -9 42 -20z m168 -13 c2 -10 -3 -17 -12 -17 -10 0 -16 9 -16 21 0 24 23 21
28 -4z m-40 -14 c-4 -34 -28 -43 -28 -10 0 25 7 37 22 37 5 0 8 -12 6 -27z
m-38 -23 c0 -10 -9 -24 -20 -30 -23 -12 -27 -1 -10 31 14 25 30 24 30 -1z"/>
<path d="M9722 3645 c0 -16 2 -22 5 -12 2 9 2 23 0 30 -3 6 -5 -1 -5 -18z"/>
<path d="M9536 3636 c9 -36 34 -87 33 -66 0 8 -4 24 -9 35 -5 14 -2 26 9 40
15 19 15 19 -2 5 -16 -12 -20 -12 -28 1 -7 9 -7 5 -3 -15z"/>
<path d="M9365 3629 c4 -13 17 -30 27 -38 14 -9 19 -22 16 -42 -3 -15 -1 -26
4 -23 15 10 8 51 -12 69 -11 10 -20 24 -20 31 0 7 -5 16 -11 20 -8 4 -9 -1 -4
-17z"/>
<path d="M9691 3583 c1 -53 6 -49 11 10 2 20 0 37 -4 37 -4 0 -8 -21 -7 -47z"/>
<path d="M9453 3570 c0 -25 2 -35 4 -22 2 12 2 32 0 45 -2 12 -4 2 -4 -23z"/>
<path d="M9491 3574 c0 -11 3 -14 6 -6 3 7 2 16 -1 19 -3 4 -6 -2 -5 -13z"/>
<path d="M9732 3555 c0 -16 2 -22 5 -12 2 9 2 23 0 30 -3 6 -5 -1 -5 -18z"/>
<path d="M9542 3540 c0 -14 2 -19 5 -12 2 6 2 18 0 25 -3 6 -5 1 -5 -13z"/>
<path d="M5781 3451 c-7 -17 -28 -39 -46 -50 -47 -27 -40 -51 21 -72 27 -10
66 -18 87 -18 20 -1 37 -4 37 -8 0 -10 49 -33 70 -33 21 0 40 20 40 43 0 23
62 50 99 43 14 -3 31 -3 37 2 20 12 56 91 50 107 -7 20 -21 19 -106 -10 -91
-31 -94 -31 -109 1 -8 19 -16 24 -29 19 -22 -10 -36 -10 -93 -1 -44 8 -46 7
-58 -23z m69 5 c35 -11 44 -18 42 -32 -6 -30 -15 -34 -57 -23 -22 6 -41 12
-43 14 -3 2 8 55 12 55 0 0 21 -6 46 -14z m100 -31 c0 -18 -5 -25 -20 -25 -23
0 -24 4 -10 31 15 27 30 24 30 -6z m178 -32 c-4 -22 -22 -20 -26 1 -2 10 3 16
13 16 10 0 15 -7 13 -17z m-155 -67 c6 -16 -16 -40 -26 -29 -4 3 -7 15 -7 25
0 21 25 24 33 4z"/>
<path d="M6248 3323 c-24 -28 -35 -55 -42 -105 -6 -38 -11 -47 -29 -50 -23 -3
-46 -40 -49 -81 -2 -22 -5 -24 -39 -20 -28 4 -49 -1 -82 -19 -29 -17 -50 -22
-58 -17 -31 20 -87 9 -139 -26 -29 -19 -58 -35 -64 -35 -21 0 -47 -36 -53 -74
-4 -26 -14 -41 -34 -53 -74 -44 -7 -43 148 1 145 42 472 198 520 248 35 37 83
119 83 142 0 23 -51 77 -87 92 -43 18 -57 18 -75 -3z"/>
<path d="M9466 3267 c-16 -11 -13 -15 23 -35 46 -26 47 -29 25 -53 -14 -16
-11 -18 57 -33 39 -9 73 -15 76 -13 2 3 -6 30 -18 61 l-21 57 -25 -16 c-23
-16 -26 -16 -46 2 -47 41 -53 43 -71 30z"/>
<path d="M2465 3209 c-33 -10 -86 -25 -117 -34 -47 -13 -60 -22 -78 -53 l-22
-37 -15 28 c-9 18 -20 27 -29 23 -8 -3 -39 -13 -69 -22 -30 -8 -55 -17 -55
-19 0 -2 21 -16 48 -31 26 -15 68 -40 95 -57 39 -24 54 -28 83 -22 66 12 82
24 89 69 6 37 56 106 76 106 4 0 22 -25 39 -55 17 -30 36 -57 41 -61 6 -3 50
4 99 16 72 19 97 22 141 14 l54 -9 3 -52 c2 -42 0 -53 -12 -53 -8 0 -20 -9
-26 -19 -5 -11 -27 -25 -47 -31 -21 -6 -45 -14 -53 -17 -8 -4 -18 -7 -22 -7
-3 -1 -10 -4 -14 -8 -11 -11 -36 -10 -29 1 3 5 19 12 35 16 l30 7 0 74 c0 43
-4 74 -10 74 -6 0 -10 -30 -10 -69 0 -68 0 -69 -31 -80 -18 -6 -34 -11 -35
-11 -2 0 -4 30 -4 66 0 41 -4 63 -10 59 -5 -3 -10 -35 -10 -71 0 -57 -2 -64
-20 -64 -13 0 -20 -7 -20 -20 0 -11 -2 -20 -5 -20 -3 0 -41 18 -85 40 -74 37
-80 39 -80 20 0 -13 -10 -24 -25 -30 -14 -5 -25 -12 -25 -15 0 -11 226 -119
245 -116 12 1 38 8 60 15 35 13 44 12 104 -11 58 -22 70 -23 108 -12 40 11 54
23 35 31 -5 2 -12 14 -15 28 -6 24 -2 27 65 50 67 23 70 25 49 38 -19 13 -21
23 -21 118 0 88 2 104 16 104 35 0 4 25 -37 30 -34 4 -59 17 -104 54 -61 50
-68 50 -89 2 -3 -6 -12 -2 -22 11 -15 21 -21 22 -94 16 -53 -4 -79 -2 -84 6
-9 14 -17 13 -91 -10z m205 -87 l23 -19 -42 -16 c-58 -24 -63 -22 -40 18 24
40 29 42 59 17z m280 -77 c0 -43 -1 -44 -25 -35 -15 6 -26 6 -30 0 -4 -6 2
-10 12 -10 14 -1 13 -4 -7 -15 -37 -21 -40 -19 -40 35 0 47 1 50 33 59 55 16
57 14 57 -34z m-30 -85 c0 -5 -5 -10 -11 -10 -5 0 -7 5 -4 10 3 6 8 10 11 10
2 0 4 -4 4 -10z m17 -12 c-3 -8 -6 -5 -6 6 -1 11 2 17 5 13 3 -3 4 -12 1 -19z
m-307 -78 c0 -5 -4 -10 -10 -10 -5 0 -10 5 -10 10 0 6 5 10 10 10 6 0 10 -4
10 -10z m-38 -15 c0 -5 -5 -11 -11 -13 -6 -2 -11 4 -11 13 0 9 5 15 11 13 6
-2 11 -8 11 -13z"/>
<path d="M7394 3175 c-18 -19 -37 -35 -42 -35 -5 0 -27 -13 -50 -30 l-40 -29
17 -45 c22 -59 24 -60 59 -42 19 10 48 14 78 12 33 -3 69 3 114 19 36 13 84
29 108 35 23 6 42 16 42 23 0 24 -82 97 -109 97 -14 0 -35 7 -45 15 -11 8 -38
15 -59 15 -32 0 -46 -7 -73 -35z"/>
<path d="M3815 3169 c-5 -16 -9 -18 -15 -8 -5 7 -6 -7 -3 -32 7 -54 13 -63 13
-20 0 18 5 41 11 53 6 11 8 22 6 25 -3 2 -8 -5 -12 -18z"/>
<path d="M3996 3183 c5 -5 12 -12 16 -18 4 -6 8 -2 8 8 0 9 -7 17 -17 17 -9 0
-12 -3 -7 -7z"/>
<path d="M4110 3166 c0 -16 4 -25 10 -21 6 3 10 2 10 -4 0 -16 20 -64 25 -59
5 5 -27 93 -38 104 -4 4 -7 -5 -7 -20z"/>
<path d="M4163 3155 c0 -22 2 -30 4 -17 2 12 2 30 0 40 -3 9 -5 -1 -4 -23z"/>
<path d="M4190 3140 c0 -37 4 -50 15 -50 16 0 30 41 22 62 -3 7 -6 1 -6 -14
-2 -45 -21 -43 -21 2 0 29 4 39 12 34 7 -4 8 -3 4 4 -15 25 -26 10 -26 -38z"/>
<path d="M4079 3140 c-2 -29 -8 -44 -16 -42 -7 1 -13 -2 -13 -8 0 -5 7 -10 15
-10 17 0 28 36 23 76 -3 23 -5 20 -9 -16z"/>
<path d="M3943 3163 c-16 -6 -17 -29 -1 -39 7 -4 8 -3 4 5 -4 6 -2 18 4 26 13
16 12 16 -7 8z"/>
<path d="M3603 3120 c0 -25 2 -35 4 -22 2 12 2 32 0 45 -2 12 -4 2 -4 -23z"/>
<path d="M3891 3113 c-1 -25 -16 -31 -24 -10 -4 9 -6 9 -6 0 -1 -17 19 -27 31
-15 5 5 8 18 5 28 -4 16 -5 15 -6 -3z"/>
<path d="M3662 3100 c0 -14 2 -19 5 -12 2 6 2 18 0 25 -3 6 -5 1 -5 -13z"/>
<path d="M4010 3101 c0 -7 -5 -9 -12 -5 -7 5 -8 3 -3 -5 5 -9 10 -10 18 -2 6
6 8 14 4 18 -4 3 -7 1 -7 -6z"/>
<path d="M3531 3046 c-1 -14 -6 -17 -27 -12 -17 5 -23 3 -19 -4 4 -6 27 -8 62
-3 33 3 54 2 51 -3 -3 -5 4 -18 14 -29 20 -20 20 -20 4 13 -13 25 -23 32 -45
32 -16 0 -32 6 -34 13 -3 7 -6 4 -6 -7z"/>
<path d="M6380 3020 c0 -19 -5 -30 -14 -30 -7 0 -25 -10 -40 -21 -20 -15 -26
-29 -24 -48 2 -17 -4 -32 -17 -42 -20 -17 -20 -17 0 -55 11 -22 22 -50 25 -64
3 -16 13 -26 26 -28 14 -2 25 -14 31 -35 5 -19 22 -40 40 -52 23 -14 32 -28
33 -47 0 -46 30 -36 30 10 0 44 8 58 35 63 14 3 23 16 29 47 6 30 23 58 58 95
26 28 48 58 48 67 0 8 -9 30 -20 48 -15 25 -25 32 -38 27 -42 -18 -47 -15 -74
35 -28 51 -44 60 -67 38 -10 -11 -14 -10 -22 5 -16 28 -39 21 -39 -13z"/>
<path d="M1536 2977 l-70 -63 153 -82 c84 -45 154 -82 156 -82 5 0 125 167
125 173 0 6 -105 47 -119 47 -4 0 -12 -10 -18 -22 -9 -22 -11 -21 -34 19 -17
30 -35 47 -64 58 -23 8 -45 15 -50 15 -6 0 -41 -29 -79 -63z"/>
<path d="M3428 3023 c7 -3 16 -2 19 1 4 3 -2 6 -13 5 -11 0 -14 -3 -6 -6z"/>
<path d="M3744 3003 c-44 -75 -55 -96 -44 -86 9 8 19 9 31 3 23 -13 33 3 19
29 -13 26 -13 34 2 25 7 -4 8 -3 4 5 -4 6 -2 18 4 26 7 8 8 15 4 15 -5 0 -14
-8 -20 -17z m2 -80 c-3 -4 -6 -1 -6 6 0 7 -4 9 -10 6 -11 -7 -14 8 -3 19 4 3
11 -1 16 -9 5 -9 6 -19 3 -22z"/>
<path d="M3430 3000 c0 -5 5 -10 11 -10 5 0 7 5 4 10 -3 6 -8 10 -11 10 -2 0
-4 -4 -4 -10z"/>
<path d="M3495 3000 c-36 -6 -37 -7 -10 -9 17 -2 41 -4 55 -7 17 -3 21 -1 11
5 -11 7 -10 10 5 14 18 4 18 5 -1 4 -11 0 -38 -3 -60 -7z"/>
<path d="M3783 2993 c9 -2 23 -2 30 0 6 3 -1 5 -18 5 -16 0 -22 -2 -12 -5z"/>
<path d="M5316 2984 c-31 -31 -44 -58 -51 -110 -5 -39 -3 -53 9 -63 30 -25 19
-48 -25 -54 -22 -3 -50 -14 -61 -24 -23 -21 -52 -72 -45 -80 3 -3 39 3 81 12
42 9 79 18 83 18 4 1 10 -11 13 -28 3 -18 11 -30 20 -30 15 0 17 5 19 56 1 19
10 29 39 42 50 22 67 54 57 104 -10 46 -12 55 -13 70 -1 6 -11 14 -21 18 -14
4 -21 17 -23 43 -3 33 -6 37 -34 40 -20 2 -38 -3 -48 -14z"/>
<path d="M3410 2947 c0 -20 4 -37 10 -37 5 0 7 14 3 33 -8 45 -13 47 -13 4z"/>
<path d="M3571 2964 c0 -11 3 -14 6 -6 3 7 2 16 -1 19 -3 4 -6 -2 -5 -13z"/>
<path d="M3980 2970 c0 -6 -12 -8 -27 -5 -25 5 -24 4 6 -10 39 -18 44 -18 36
-6 -3 6 3 14 12 20 16 9 16 10 -4 11 -13 0 -23 -5 -23 -10z"/>
<path d="M3228 2963 c7 -3 16 -2 19 1 4 3 -2 6 -13 5 -11 0 -14 -3 -6 -6z"/>
<path d="M3446 2952 c-2 -9 -7 -28 -10 -42 -3 -17 -20 -34 -48 -49 -87 -48
-217 -136 -218 -148 0 -7 10 -18 23 -24 12 -7 25 -17 30 -23 5 -8 9 -8 15 0 8
13 67 34 93 34 11 0 19 -7 19 -16 0 -8 5 -12 11 -9 6 4 8 10 5 13 -4 3 13 12
36 20 24 8 53 23 64 33 12 11 27 19 35 17 10 -2 16 20 22 91 5 51 5 97 0 101
-4 4 -22 10 -40 13 -25 5 -33 3 -37 -11z m64 -29 c0 -8 -3 -12 -7 -10 -5 2
-16 7 -26 10 -10 4 -16 11 -13 16 9 14 46 1 46 -16z"/>
<path d="M3551 2948 c-1 -16 4 -28 9 -28 12 0 12 8 0 35 -8 18 -9 17 -9 -7z"/>
<path d="M3641 2940 c6 -16 15 -30 20 -30 5 0 3 14 -6 30 -9 17 -17 30 -20 30
-2 0 1 -13 6 -30z"/>
<path d="M3861 2958 c-1 -9 4 -20 9 -23 6 -4 8 -16 5 -28 -5 -20 -4 -20 7 1 8
16 8 26 1 30 -5 4 -13 14 -16 22 -4 12 -6 12 -6 -2z"/>
<path d="M3155 2950 c3 -5 8 -10 11 -10 2 0 4 5 4 10 0 6 -5 10 -11 10 -5 0
-7 -4 -4 -10z"/>
<path d="M3621 2934 c0 -11 3 -14 6 -6 3 7 2 16 -1 19 -3 4 -6 -2 -5 -13z"/>
<path d="M4076 2939 c4 -8 -4 -9 -27 -5 -26 5 -30 4 -17 -4 9 -5 28 -9 42 -8
19 2 22 5 14 15 -13 16 -22 17 -12 2z"/>
<path d="M3951 2908 c0 -7 4 -22 9 -33 8 -18 9 -17 9 7 1 15 -3 30 -9 33 -5 3
-10 0 -9 -7z"/>
<path d="M3230 2903 c0 0 12 -5 28 -10 18 -7 36 -6 57 2 28 12 26 13 -28 11
-31 0 -57 -2 -57 -3z"/>
<path d="M3567 2893 c7 -20 33 -60 33 -52 0 17 -23 69 -31 69 -4 0 -6 -8 -2
-17z"/>
<path d="M3991 2868 c-2 -39 -20 -90 -21 -60 0 7 -6 20 -14 28 -13 12 -17 12
-30 -2 -15 -14 -16 -13 -17 13 0 24 -4 20 -21 -24 -21 -55 -54 -76 -42 -28 7
29 -9 34 -32 10 -9 -8 -24 -15 -35 -15 -41 0 -16 -22 72 -62 76 -35 87 -43 69
-50 -12 -4 -19 -12 -15 -18 3 -5 19 -1 38 10 18 11 39 20 48 20 18 0 56 109
46 134 -3 8 1 20 9 26 8 7 14 16 14 21 0 18 -39 -30 -42 -52 -2 -12 -9 -24
-16 -27 -7 -2 -10 2 -7 10 8 24 12 99 5 103 -3 2 -7 -15 -9 -37z"/>
<path d="M4108 2903 c6 -2 18 -2 25 0 6 3 1 5 -13 5 -14 0 -19 -2 -12 -5z"/>
<path d="M4020 2880 c0 -5 5 -10 10 -10 6 0 10 5 10 10 0 6 -4 10 -10 10 -5 0
-10 -4 -10 -10z"/>
<path d="M4195 2880 c3 -5 8 -10 11 -10 2 0 4 5 4 10 0 6 -5 10 -11 10 -5 0
-7 -4 -4 -10z"/>
<path d="M4237 2853 c19 -13 21 -19 11 -37 -11 -21 -11 -21 11 -1 l22 19 -23
18 c-13 10 -27 17 -33 17 -5 0 0 -7 12 -16z"/>
<path d="M2134 2823 c-18 -9 -42 -34 -54 -56 l-23 -40 -17 24 -18 23 -98 -48
-97 -47 49 -51 c27 -28 57 -60 68 -71 19 -20 19 -20 97 19 l79 38 0 43 0 43
93 0 c68 1 101 5 125 19 26 13 31 20 20 27 -21 16 -175 94 -185 93 -4 0 -22
-7 -39 -16z"/>
<path d="M4077 2825 c-4 -9 -5 -21 -1 -26 3 -5 -1 -16 -9 -24 -9 -8 -18 -33
-22 -55 -4 -22 -11 -40 -16 -40 -6 0 -7 -5 -3 -11 3 -6 15 -9 25 -6 10 3 17 0
16 -5 -1 -5 8 -14 21 -19 12 -4 22 -5 22 0 0 5 -7 11 -15 15 -8 3 -15 11 -15
18 0 9 3 8 10 -2 6 -10 10 -11 10 -3 0 7 26 20 58 29 31 9 61 19 67 22 5 3 18
7 27 7 10 1 29 11 41 23 13 12 26 20 29 17 3 -3 10 1 17 9 9 11 8 15 -4 20 -9
3 -13 2 -10 -4 3 -6 -3 -10 -13 -10 -11 0 -22 -8 -25 -19 -3 -14 -14 -19 -46
-19 -22 0 -43 4 -47 9 -3 6 -17 14 -30 19 -16 7 -24 17 -24 34 0 14 -4 28 -10
31 -13 8 -13 -1 5 -59 10 -33 12 -53 5 -60 -13 -13 -15 -10 -37 63 -14 44 -22
58 -26 46z"/>
<path d="M3551 2790 c0 -25 3 -38 6 -30 3 8 9 17 14 20 4 3 1 16 -6 30 -14 24
-14 24 -14 -20z"/>
<path d="M3619 2796 c9 -18 17 -30 19 -26 4 12 -17 60 -26 60 -5 0 -2 -15 7
-34z"/>
<path d="M3768 2823 c7 -3 16 -2 19 1 4 3 -2 6 -13 5 -11 0 -14 -3 -6 -6z"/>
<path d="M4150 2809 c0 -5 5 -7 10 -4 6 3 10 8 10 11 0 2 -4 4 -10 4 -5 0 -10
-5 -10 -11z"/>
<path d="M4290 2810 c0 -5 5 -10 10 -10 6 0 10 5 10 10 0 6 -4 10 -10 10 -5 0
-10 -4 -10 -10z"/>
<path d="M3535 2730 c-18 -8 -17 -9 8 -9 15 -1 27 4 27 9 0 12 -8 12 -35 0z"/>
<path d="M3525 2700 c3 -5 13 -10 21 -10 8 0 14 5 14 10 0 6 -9 10 -21 10 -11
0 -17 -4 -14 -10z"/>
<path d="M4220 2701 c0 -5 7 -12 16 -15 9 -3 14 -13 11 -20 -5 -12 2 -13 31
-9 46 7 54 13 19 13 -15 0 -36 9 -47 20 -22 22 -30 25 -30 11z"/>
<path d="M3570 2684 c0 -8 5 -12 10 -9 6 4 8 11 5 16 -9 14 -15 11 -15 -7z"/>
<path d="M3310 2679 c0 -5 5 -7 10 -4 6 3 10 8 10 11 0 2 -4 4 -10 4 -5 0 -10
-5 -10 -11z"/>
<path d="M4144 2663 c-33 -46 -38 -60 -10 -29 14 16 26 33 26 37 0 4 10 10 23
12 20 4 20 4 1 6 -12 0 -29 -10 -40 -26z"/>
<path d="M3298 2653 c6 -2 18 -2 25 0 6 3 1 5 -13 5 -14 0 -19 -2 -12 -5z"/>
<path d="M4362 2573 c1 -78 -1 -87 -18 -88 -36 -3 -99 -27 -111 -43 -12 -14
-13 -13 -13 6 0 25 -10 28 -28 10 -9 -9 -12 -7 -12 9 0 12 -3 24 -7 26 -5 3
-44 -5 -88 -18 -44 -13 -84 -21 -88 -18 -5 3 -7 25 -4 49 2 24 0 44 -5 44 -4
0 -8 -24 -8 -54 0 -49 -2 -55 -22 -58 -20 -3 -18 -6 16 -23 40 -20 45 -38 13
-40 -11 -1 -22 -8 -27 -15 -6 -10 -13 -9 -31 4 -13 9 -34 16 -46 16 -14 0 -23
6 -23 15 0 18 -8 18 -39 1 -14 -8 -31 -12 -38 -9 -7 3 -13 0 -13 -6 0 -12 111
-71 134 -71 8 0 136 36 283 81 424 127 463 139 463 147 0 4 -34 20 -75 35 -68
25 -80 27 -113 16 -20 -6 -41 -14 -47 -18 -28 -16 -35 -8 -35 40 0 27 -4 49
-10 49 -5 0 -9 -38 -8 -87z"/>
<path d="M2178 2643 c6 -2 18 -2 25 0 6 3 1 5 -13 5 -14 0 -19 -2 -12 -5z"/>
<path d="M2290 2633 c0 -12 5 -25 10 -28 13 -8 13 15 0 35 -8 12 -10 11 -10
-7z"/>
<path d="M2331 2634 c0 -11 3 -14 6 -6 3 7 2 16 -1 19 -3 4 -6 -2 -5 -13z"/>
<path d="M2360 2636 c0 -8 4 -17 9 -20 5 -4 7 3 4 14 -6 23 -13 26 -13 6z"/>
<path d="M2768 2643 c6 -2 18 -2 25 0 6 3 1 5 -13 5 -14 0 -19 -2 -12 -5z"/>
<path d="M3250 2646 c0 -2 7 -9 15 -16 9 -7 15 -8 15 -2 0 5 -7 12 -15 16 -8
3 -15 4 -15 2z"/>
<path d="M3880 2641 c-8 -6 -17 -8 -21 -5 -4 2 -10 0 -13 -5 -12 -19 10 -19
34 0 26 19 26 26 0 10z"/>
<path d="M4164 2635 c-17 -13 -15 -13 21 -4 49 14 56 19 24 19 -14 0 -34 -7
-45 -15z"/>
<path d="M2682 2615 c0 -16 2 -22 5 -12 2 9 2 23 0 30 -3 6 -5 -1 -5 -18z"/>
<path d="M2451 2619 c-1 -9 7 -23 17 -30 15 -12 16 -12 6 1 -6 8 -14 22 -17
30 -5 13 -6 12 -6 -1z"/>
<path d="M2540 2596 c0 -19 3 -37 8 -40 4 -2 6 13 4 35 -5 48 -12 51 -12 5z"/>
<path d="M2712 2600 c0 -14 2 -19 5 -12 2 6 2 18 0 25 -3 6 -5 1 -5 -13z"/>
<path d="M3290 2616 c0 -2 7 -6 15 -10 8 -3 15 -1 15 4 0 6 -7 10 -15 10 -8 0
-15 -2 -15 -4z"/>
<path d="M2651 2588 c-1 -23 9 -48 21 -48 7 0 7 4 0 13 -5 6 -12 21 -15 32 -3
15 -5 16 -6 3z"/>
<path d="M2311 2585 c1 -19 18 -51 18 -35 0 8 -4 22 -9 30 -5 8 -9 11 -9 5z"/>
<path d="M2381 2585 c1 -19 18 -51 18 -35 0 8 -4 22 -9 30 -5 8 -9 11 -9 5z"/>
<path d="M3336 2576 c21 -15 30 -14 19 3 -3 6 -14 11 -23 11 -13 0 -13 -2 4
-14z"/>
<path d="M3840 2580 c11 -7 12 -12 3 -18 -7 -4 6 -8 30 -8 l41 -2 -35 19 c-36
19 -65 26 -39 9z"/>
<path d="M2191 2564 c0 -11 3 -14 6 -6 3 7 2 16 -1 19 -3 4 -6 -2 -5 -13z"/>
<path d="M3390 2537 c44 -41 120 -89 133 -84 9 4 9 6 0 6 -16 1 -70 38 -108
74 -16 15 -34 27 -40 27 -5 0 1 -10 15 -23z"/>
<path d="M3490 2499 c0 -13 28 -18 33 -6 3 7 -3 13 -14 13 -11 0 -19 -3 -19
-7z"/>
<path d="M3708 2503 c6 -2 18 -2 25 0 6 3 1 5 -13 5 -14 0 -19 -2 -12 -5z"/>
<path d="M4880 2405 c0 -50 4 -85 10 -85 6 0 10 35 10 85 0 50 -4 85 -10 85
-6 0 -10 -35 -10 -85z"/>
<path d="M6589 2367 c-25 -17 -35 -31 -37 -55 -2 -18 -7 -32 -12 -32 -5 0 -14
-15 -20 -34 -6 -19 -17 -37 -25 -40 -8 -3 -15 -16 -15 -29 0 -12 -9 -40 -20
-62 -13 -25 -17 -47 -13 -60 4 -11 8 -47 8 -80 l0 -60 50 -9 c42 -8 51 -6 60
8 23 40 30 43 73 39 l42 -5 0 -93 c0 -94 5 -110 33 -100 11 5 14 33 13 144 -1
134 0 139 26 177 15 21 32 51 39 66 8 18 27 32 62 45 59 21 66 34 35 63 -22
21 -23 22 -4 36 19 13 19 14 1 34 -10 11 -42 32 -70 45 -44 22 -56 24 -78 14
-19 -9 -34 -9 -58 0 -44 15 -51 14 -90 -12z m191 -210 c0 -8 -16 -31 -35 -53
-27 -31 -34 -35 -35 -19 0 10 14 34 32 52 36 37 38 38 38 20z m-132 -58 c17 9
20 6 26 -21 3 -17 6 -47 6 -67 l0 -36 -25 30 c-13 17 -24 33 -25 38 0 4 -9 16
-20 27 -23 23 -18 49 5 30 10 -8 19 -8 33 -1z"/>
<path d="M5253 2340 c-12 -5 -25 -15 -30 -22 -4 -7 -19 -19 -33 -26 -14 -6
-32 -16 -40 -20 -40 -23 -61 -32 -75 -32 -8 0 -23 -8 -34 -19 -10 -10 -30 -21
-45 -25 -32 -8 -67 -61 -64 -96 3 -23 7 -25 45 -23 22 1 71 11 108 22 37 12
88 21 114 21 25 0 54 7 64 15 14 10 40 12 105 8 75 -5 90 -3 110 13 13 11 24
32 25 49 2 27 -1 30 -33 35 -25 4 -36 11 -38 25 -6 29 -32 55 -56 55 -12 1
-32 7 -46 15 -29 16 -46 17 -77 5z"/>
<path d="M7180 2215 c-6 -8 -9 -18 -6 -23 3 -6 -6 -12 -21 -15 -20 -4 -31 0
-41 14 -20 29 -77 25 -109 -7 -25 -25 -27 -52 -8 -96 5 -13 3 -18 -9 -18 -17
0 -36 -29 -36 -55 0 -27 70 -85 101 -85 24 0 29 -6 44 -50 13 -39 15 -62 7
-110 l-9 -61 26 3 c25 3 26 5 24 68 -2 56 1 69 21 93 23 28 24 29 54 13 39
-20 66 -20 86 0 21 21 20 40 -4 64 -21 21 -19 24 22 34 19 4 30 15 34 33 6 21
1 31 -25 52 -17 14 -31 32 -31 38 0 7 -11 20 -24 28 -13 9 -27 28 -31 43 -12
50 -41 66 -65 37z m-30 -305 c0 -4 -7 -13 -15 -20 -13 -11 -15 -8 -15 13 0 19
4 25 15 21 8 -4 15 -10 15 -14z"/>
<path d="M3940 2193 c-8 -3 -18 -11 -22 -17 -5 -8 -11 -7 -20 2 -22 22 -50 13
-90 -30 -36 -39 -40 -41 -71 -31 -39 12 -72 2 -87 -27 -16 -29 -6 -49 30 -61
19 -7 30 -18 30 -30 0 -10 11 -25 23 -34 13 -8 29 -26 35 -40 7 -14 20 -25 31
-25 10 0 24 -7 31 -15 7 -8 19 -15 27 -15 11 0 13 -8 9 -27 -3 -16 -8 -56 -11
-89 -5 -49 -4 -62 8 -67 25 -10 58 4 53 22 -3 9 -8 46 -11 82 l-7 66 40 7 c44
7 73 35 65 64 -3 12 12 27 47 50 58 38 71 59 47 77 -10 7 -17 24 -17 37 0 25
-15 35 -77 53 -12 3 -23 16 -25 27 -3 23 -15 29 -38 21z"/>
<path d="M8040 2014 c-47 -44 -51 -46 -82 -35 -28 10 -36 9 -58 -7 -14 -11
-26 -29 -28 -41 -4 -28 24 -61 52 -61 12 0 32 -12 45 -25 13 -14 27 -25 31
-25 5 0 10 -17 12 -37 3 -33 6 -38 28 -39 14 0 34 -6 46 -14 18 -11 20 -19 14
-54 -4 -23 -11 -66 -14 -97 -7 -51 -5 -57 13 -62 12 -3 29 -3 40 0 16 4 17 10
10 46 -4 23 -8 65 -9 93 0 50 1 51 31 52 34 1 59 17 59 40 0 8 29 41 65 74 69
63 78 82 45 91 -16 4 -19 11 -15 30 8 29 -20 53 -72 63 -26 5 -33 11 -33 30 0
18 -5 24 -23 24 -13 0 -28 -5 -34 -11 -8 -8 -20 -9 -43 -1 -30 11 -34 9 -80
-34z"/>
<path d="M4244 2024 c3 -9 6 -34 6 -56 0 -23 2 -39 5 -37 4 5 7 60 3 92 -1 9
-6 17 -11 17 -5 0 -6 -7 -3 -16z"/>
<path d="M4332 2028 c-7 -7 -11 -26 -11 -42 l2 -31 6 33 c8 45 26 41 26 -5 0
-26 -4 -37 -13 -35 -8 1 -11 -2 -7 -8 14 -23 36 12 33 53 -3 43 -16 55 -36 35z"/>
<path d="M4407 2034 c-4 -4 -7 -12 -7 -18 0 -6 5 -4 10 4 9 13 11 13 21 0 9
-12 10 -12 7 -1 -5 17 -21 25 -31 15z"/>
<path d="M4473 1990 c0 -30 2 -43 4 -27 2 15 2 39 0 55 -2 15 -4 2 -4 -28z"/>
<path d="M4404 1950 c2 -21 30 -19 32 3 1 12 1 13 -3 2 -5 -18 -20 -20 -26 -2
-2 7 -3 6 -3 -3z"/>
<path d="M5050 1140 l0 -110 505 0 505 0 0 110 0 110 -505 0 -505 0 0 -110z
m93 53 c3 -5 8 -35 12 -67 6 -43 5 -57 -4 -52 -6 4 -11 22 -12 39 l-1 32 -8
-33 c-12 -50 -20 -50 -20 -1 0 69 17 109 33 82z m81 -9 c4 -9 3 -20 0 -23 -4
-3 -9 0 -11 7 -10 26 -23 10 -23 -26 0 -45 8 -56 27 -41 10 9 13 8 13 -5 0
-22 -27 -31 -45 -16 -17 14 -20 72 -5 101 13 23 36 25 44 3z m75 -9 c3 -17 1
-18 -13 -6 -14 12 -16 10 -17 -10 -3 -58 6 -83 21 -59 5 8 12 11 16 7 12 -12
-21 -38 -39 -31 -13 5 -17 19 -17 58 0 29 3 56 7 60 13 12 38 1 42 -19z m65 9
c11 -27 7 -79 -8 -99 -13 -18 -14 -18 -25 3 -20 38 -12 112 14 112 7 0 16 -7
19 -16z m46 1 c11 -14 14 -13 25 1 6 10 17 14 23 10 15 -9 16 -126 2 -126 -5
0 -10 18 -10 41 0 25 -4 38 -10 34 -6 -4 -17 -1 -25 5 -13 11 -15 5 -15 -34 0
-29 -4 -45 -10 -41 -12 8 -13 125 -1 125 5 0 14 -7 21 -15z m100 0 c11 -13 14
-13 25 2 19 25 24 15 31 -55 5 -44 3 -62 -5 -62 -6 0 -11 11 -11 25 0 13 -10
34 -22 45 l-23 21 -3 -46 c-4 -65 -22 -45 -22 26 0 60 8 71 30 44z m114 -17
c7 -42 -6 -93 -25 -93 -10 0 -15 15 -17 49 -2 27 -1 55 2 62 10 26 34 15 40
-18z m44 20 c26 -26 10 -118 -20 -118 -4 0 -8 29 -8 65 0 65 6 75 28 53z m66
-15 c6 -31 9 -82 6 -98 -1 -5 -7 8 -15 30 l-13 40 -1 -32 c-1 -17 -6 -35 -13
-39 -8 -5 -9 2 -5 26 4 18 7 48 7 66 0 42 26 47 34 7z m91 17 c3 -5 -1 -10 -9
-10 -13 0 -16 -12 -16 -55 0 -30 -4 -55 -10 -55 -5 0 -10 25 -10 55 0 30 -4
55 -10 55 -5 0 -10 5 -10 10 0 6 13 10 29 10 17 0 33 -4 36 -10z m35 -61 c0
-33 -4 -59 -10 -59 -6 0 -10 29 -10 66 0 41 4 63 10 59 6 -3 10 -33 10 -66z
m54 39 c7 -42 -6 -93 -25 -93 -10 0 -15 15 -17 49 -2 27 -1 55 2 62 10 26 34
15 40 -18z m48 -10 l17 -43 0 43 c1 23 6 42 11 42 11 0 13 -37 4 -92 -8 -47
-29 -49 -39 -5 l-8 32 -7 -35 c-6 -29 -8 -23 -9 33 0 37 3 67 7 67 4 0 15 -19
24 -42z"/>
<path d="M5343 1135 c0 -22 2 -30 4 -17 2 12 2 30 0 40 -3 9 -5 -1 -4 -23z"/>
<path d="M5597 1163 c-11 -10 -8 -51 3 -58 6 -4 10 8 10 29 0 37 -2 41 -13 29z"/>
<path d="M5650 1133 c0 -28 3 -34 10 -23 13 20 13 47 0 55 -6 4 -10 -9 -10
-32z"/>
<path d="M5883 1154 c-3 -8 -1 -25 5 -37 10 -20 11 -18 11 16 1 39 -5 48 -16
21z"/>
<path d="M1640 1118 l0 -113 533 1 c292 1 540 2 550 3 15 1 17 13 17 111 l0
110 -550 0 -550 0 0 -112z m176 6 c11 -67 0 -103 -12 -38 -7 38 -24 29 -24
-13 0 -13 -4 -23 -8 -23 -11 0 -2 122 11 138 15 19 21 7 33 -64z m106 -1 c3
-70 -8 -95 -18 -37 -3 23 -15 46 -28 56 l-23 17 5 -50 c3 -32 1 -49 -7 -49 -7
0 -11 23 -11 65 0 66 7 78 31 49 12 -14 14 -13 21 7 13 35 26 11 30 -58z m56
65 c17 -17 15 -47 -3 -54 -9 -4 -15 -19 -15 -40 0 -19 -4 -34 -10 -34 -6 0
-10 30 -10 70 0 71 10 86 38 58z m42 -63 c0 -43 -4 -75 -10 -75 -6 0 -10 32
-10 75 0 43 4 75 10 75 6 0 10 -32 10 -75z m46 29 l12 -39 1 43 c1 24 6 42 12
42 8 0 10 -19 6 -65 -8 -86 -18 -101 -33 -50 l-12 40 -1 -32 c-1 -18 -5 -33
-11 -33 -6 0 -10 30 -10 71 0 80 15 90 36 23z m98 23 c6 -9 6 -20 2 -24 -5 -4
-11 -2 -13 5 -10 27 -23 9 -23 -31 0 -45 6 -60 22 -51 5 3 4 12 -3 20 -9 11
-7 14 10 14 24 0 27 -18 7 -46 -24 -31 -50 -7 -54 49 -5 73 24 108 52 64z
m124 -5 c2 -13 -2 -30 -9 -39 -8 -8 -12 -28 -11 -44 2 -16 -1 -29 -7 -29 -6 0
-11 8 -11 18 -1 9 -3 41 -6 70 -6 52 -5 54 18 50 15 -2 24 -11 26 -26z m42
-54 c0 -31 -4 -60 -10 -63 -6 -4 -10 22 -10 72 0 54 3 73 10 63 5 -8 10 -41
10 -72z m80 72 c0 -5 -7 -10 -15 -10 -12 0 -15 -13 -15 -60 0 -33 -4 -60 -10
-60 -6 0 -10 27 -10 60 0 33 -4 60 -10 60 -5 0 -10 5 -10 10 0 6 16 10 35 10
19 0 35 -4 35 -10z m160 -65 c1 -33 2 -64 1 -70 -3 -20 -21 21 -21 48 0 17 -5
27 -15 27 -11 0 -15 -11 -15 -41 0 -24 -4 -38 -10 -34 -5 3 -10 35 -10 71 0
36 4 64 10 64 6 0 10 -7 10 -15 0 -8 7 -15 15 -15 9 0 15 9 15 22 0 14 4 18 9
13 5 -6 10 -37 11 -70z m117 58 c4 -9 1 -19 -5 -21 -17 -5 -15 -27 4 -42 22
-19 14 -65 -11 -65 -12 0 -21 8 -22 20 -2 11 0 14 3 8 3 -7 10 -13 15 -13 16
0 10 26 -11 45 -23 21 -24 24 -10 59 11 30 28 34 37 9z m-943 -9 c9 -22 0 -30
-18 -15 -12 10 -16 8 -21 -9 -8 -25 3 -80 16 -80 5 0 9 5 9 10 0 6 5 10 10 10
16 0 12 -26 -6 -41 -14 -11 -19 -10 -36 11 -16 20 -19 34 -14 68 3 24 8 48 12
53 9 15 41 10 48 -7z m733 1 c3 -9 2 -19 -2 -23 -4 -4 -10 -1 -12 6 -10 27
-23 10 -23 -30 0 -55 13 -78 28 -52 14 26 26 11 12 -15 -14 -26 -36 -27 -50
-2 -11 22 -14 90 -4 115 8 20 43 21 51 1z m153 5 c0 -5 -5 -10 -11 -10 -6 0
-9 -9 -6 -20 3 -11 2 -22 -3 -25 -10 -6 0 -55 11 -55 5 0 9 -4 9 -10 0 -5 -9
-10 -20 -10 -18 0 -20 7 -20 70 0 63 2 70 20 70 11 0 20 -4 20 -10z"/>
<path d="M1956 1165 c4 -8 8 -15 10 -15 2 0 4 7 4 15 0 8 -4 15 -10 15 -5 0
-7 -7 -4 -15z"/>
<path d="M2260 1166 c0 -9 5 -16 10 -16 6 0 10 4 10 9 0 6 -4 13 -10 16 -5 3
-10 -1 -10 -9z"/>
<path d="M7130 1043 c-109 -13 -117 -16 -150 -49 -19 -18 -32 -34 -28 -34 4 0
19 12 33 26 14 14 28 25 29 23 2 -2 15 -25 30 -51 16 -27 30 -48 32 -48 2 0
37 9 76 20 84 23 148 15 148 -20 0 -10 5 -22 10 -25 6 -4 10 6 10 23 0 22 6
31 23 36 41 11 47 7 47 -30 0 -34 -1 -36 -27 -30 -20 5 -24 4 -13 -3 12 -9 12
-11 -2 -16 -10 -4 -22 -4 -28 0 -6 4 -21 -4 -33 -18 -23 -25 -58 -47 -76 -47
-7 0 -11 24 -11 61 0 41 -3 58 -11 53 -7 -4 -10 -29 -7 -68 3 -33 3 -55 0 -48
-2 6 -8 12 -13 12 -4 0 -6 -7 -3 -15 4 -8 2 -15 -4 -15 -6 0 -19 -3 -29 -6
-16 -6 -16 -5 2 9 11 9 15 17 8 17 -9 0 -13 16 -13 45 0 63 -20 56 -21 -7 -1
-29 -1 -59 0 -65 3 -21 -36 -15 -100 16 l-60 29 3 -25 c2 -19 20 -33 81 -66
l77 -41 43 15 c37 14 46 14 76 2 21 -9 48 -12 68 -8 35 6 43 22 18 31 -29 12
-14 32 35 50 l50 18 0 83 c0 49 4 83 10 83 6 0 10 5 10 10 0 6 -14 10 -32 10
-21 0 -48 13 -84 40 -29 22 -54 39 -56 39 -2 -1 -55 -8 -118 -16z m36 -67 c18
-14 17 -15 -16 -29 -42 -18 -48 -15 -30 18 16 29 19 30 46 11z m214 -132 c0
-7 -8 -10 -20 -7 -22 6 -19 20 5 20 8 0 15 -6 15 -13z"/>
<path d="M5080 815 l0 -105 160 0 160 0 0 105 0 105 -160 0 -160 0 0 -105z"/>
<path d="M4498 872 c-23 -14 -27 -24 -30 -75 -2 -32 0 -67 4 -77 4 -11 35 -27
84 -44 l78 -26 158 52 158 53 -2 60 c-1 56 -2 57 -5 13 -3 -36 -7 -46 -19 -41
-7 3 -15 17 -15 32 -1 20 -2 22 -6 6 -8 -34 -23 -41 -23 -12 0 15 -6 27 -12
27 -7 0 -60 -13 -118 -30 -58 -16 -108 -30 -112 -30 -3 0 -22 25 -43 55 -38
58 -52 64 -97 37z m56 -68 c11 -4 16 -19 16 -51 0 -37 -3 -44 -16 -39 -9 3
-19 6 -24 6 -4 0 -10 20 -12 45 -3 46 2 52 36 39z m244 -31 c-2 -17 -10 -29
-20 -31 -14 -3 -18 3 -18 27 0 25 4 31 21 31 16 0 20 -5 17 -27z m-88 -17 c0
-25 -5 -35 -20 -39 -17 -4 -20 0 -20 28 0 24 5 35 18 38 9 3 18 5 20 6 1 0 2
-14 2 -33z"/>
<path d="M5510 854 c1 -13 50 -47 50 -34 0 6 5 8 10 5 6 -3 10 3 10 14 0 12
-4 21 -10 21 -5 0 -10 -7 -10 -15 0 -19 -9 -19 -32 2 -10 9 -18 12 -18 7z"/>
<path d="M5615 849 c-4 -6 -4 -13 -1 -16 3 -4 6 -1 6 6 0 7 5 9 10 6 6 -3 10
-1 10 4 0 14 -17 14 -25 0z"/>
<path d="M5670 856 c0 -2 9 -6 20 -9 11 -3 18 -1 14 4 -5 9 -34 13 -34 5z"/>
<path d="M5820 835 c0 -14 5 -25 11 -25 6 0 8 7 5 17 -4 9 -1 20 6 25 10 6 8
8 -4 8 -13 0 -18 -8 -18 -25z"/>
<path d="M5933 800 c0 -36 2 -50 4 -32 2 17 2 47 0 65 -2 17 -4 3 -4 -33z"/>
<path d="M6032 846 c7 -8 15 -12 17 -11 5 6 -10 25 -20 25 -5 0 -4 -6 3 -14z"/>
<path d="M6080 851 c0 -6 9 -15 19 -21 25 -13 31 -13 31 1 0 5 -4 8 -9 4 -5
-3 -17 2 -25 11 -9 8 -16 11 -16 5z"/>
<path d="M6137 813 c7 -71 11 -75 12 -10 1 31 -3 57 -8 57 -5 0 -6 -21 -4 -47z"/>
<path d="M6188 853 c7 -3 16 -2 19 1 4 3 -2 6 -13 5 -11 0 -14 -3 -6 -6z"/>
<path d="M6247 853 c-13 -13 -7 -51 11 -64 14 -11 15 -11 5 1 -15 17 -17 64
-3 55 6 -3 10 -1 10 4 0 12 -13 14 -23 4z"/>
<path d="M5977 838 c-2 -7 -1 -33 3 -58 l7 -45 2 58 c1 56 -2 69 -12 45z"/>
<path d="M6366 834 c-13 -33 5 -104 26 -104 5 0 1 11 -8 25 -11 17 -15 37 -11
60 6 37 3 45 -7 19z"/>
<path d="M6422 799 c1 -52 2 -52 5 -11 4 36 7 42 19 31 8 -6 14 -8 15 -3 0 5
4 0 9 -11 7 -17 9 -14 9 14 1 29 -1 32 -14 21 -12 -10 -18 -10 -30 0 -13 11
-15 5 -13 -41z"/>
<path d="M6525 834 c4 -10 7 -30 7 -44 -1 -22 0 -23 7 -5 9 23 3 52 -12 62 -7
4 -8 0 -2 -13z"/>
<path d="M5642 800 c0 -14 2 -19 5 -12 2 6 2 18 0 25 -3 6 -5 1 -5 -13z"/>
<path d="M5670 778 c0 -20 4 -39 8 -42 5 -3 6 9 4 26 -4 24 -1 30 9 26 9 -4
15 1 15 11 0 9 -8 17 -18 17 -14 0 -18 -8 -18 -38z"/>
<path d="M5512 765 c0 -16 2 -22 5 -12 2 9 2 23 0 30 -3 6 -5 -1 -5 -18z"/>
<path d="M6030 750 c-9 -6 -10 -10 -3 -10 6 0 15 5 18 10 8 12 4 12 -15 0z"/>
<path d="M6509 743 c-13 -16 -12 -17 4 -4 9 7 17 15 17 17 0 8 -8 3 -21 -13z"/>
<path d="M4578 563 c-61 -15 -108 -31 -108 -38 0 -8 31 -5 103 12 72 16 134
23 210 23 64 0 107 4 107 10 0 6 -29 10 -67 10 -38 0 -84 2 -103 5 -19 2 -83
-8 -142 -22z"/>
<path d="M7200 583 c-80 -28 -225 -155 -218 -190 2 -11 11 -17 22 -15 24 4 69
-26 62 -43 -7 -19 29 -30 83 -26 34 2 51 11 78 37 23 23 43 34 63 34 17 0 30
4 30 10 0 5 9 18 20 28 34 31 36 74 5 111 -44 51 -97 71 -145 54z m-50 -93
c22 -11 40 -26 40 -33 -1 -12 -34 -57 -43 -57 -2 0 -25 12 -51 26 l-46 26 21
29 c24 34 28 35 79 9z m193 -4 c5 -14 -10 -36 -25 -36 -4 0 -8 11 -8 25 0 27
24 35 33 11z m-45 -23 c-4 -37 -38 -45 -38 -10 0 23 10 34 33 36 5 1 7 -11 5
-26z m-48 -27 c0 -16 -7 -27 -21 -31 -29 -10 -33 -1 -14 29 22 33 35 33 35 2z"/>
</g>
</svg>
